<svg width="375" height="229" viewBox="0 0 375 229" fill="none" xmlns="http://www.w3.org/2000/svg">
<g opacity="0.1" filter="url(#filter0_d_511_7432)">
<rect x="25" y="24" width="325" height="129" rx="15" fill="white"/>
<rect x="25.5" y="24.5" width="324" height="128" rx="14.5" stroke="#F4F4F4"/>
</g>
<path d="M152.388 122H154.67V113.544H157.764V111.64H149.308V113.544H152.388V122ZM158.861 122.112C159.967 122.112 160.779 121.678 161.465 120.908C161.465 121.328 161.535 121.692 161.633 122H163.873C163.719 121.622 163.663 121.076 163.663 120.18V117.31C163.663 115.392 162.823 114.384 160.779 114.384C158.917 114.384 157.797 115.042 157.055 115.714L158.007 117.002C158.693 116.47 159.505 116.078 160.457 116.078C161.185 116.078 161.465 116.428 161.465 116.974V117.156C158.189 117.422 156.733 118.374 156.733 120.096C156.733 121.37 157.713 122.112 158.861 122.112ZM159.757 120.418C159.267 120.418 158.931 120.18 158.931 119.704C158.931 119.018 159.687 118.57 161.465 118.388V119.774C161.087 120.152 160.541 120.418 159.757 120.418ZM165.303 122H167.557V119.984L168.467 118.962L170.119 122H172.443L169.867 117.324L172.303 114.538H169.881L167.557 117.324V111.64H165.303V122ZM176.498 122.154C177.8 122.154 178.878 121.776 179.746 121.034L178.878 119.69C178.374 120.152 177.548 120.586 176.666 120.586C175.728 120.586 175.042 120.11 174.93 118.878H179.872V118.542C179.872 115.154 177.982 114.384 176.442 114.384C174.902 114.384 172.69 115.378 172.69 118.276C172.69 121.16 174.552 122.154 176.498 122.154ZM174.958 117.548C175.126 116.456 175.728 115.994 176.428 115.994C177.268 115.994 177.744 116.498 177.856 117.548H174.958ZM185.146 122H187.414V118.318H188.884C190.956 118.318 193.14 117.744 193.14 114.958C193.14 112.228 191.124 111.64 188.912 111.64H185.146V122ZM187.414 116.554V113.502H188.968C190.396 113.502 190.914 114.048 190.914 115.014C190.914 116.008 190.382 116.554 188.968 116.554H187.414ZM194.397 122H196.651V116.988C197.155 116.554 197.673 116.246 198.289 116.246C198.905 116.246 199.157 116.596 199.157 117.268V122H201.411V116.554C201.411 115.014 200.501 114.384 199.227 114.384C197.925 114.384 197.099 115.126 196.651 115.714V111.64H194.397V122ZM206.467 122.154C208.273 122.154 210.275 121.174 210.275 118.276C210.275 115.35 208.273 114.384 206.467 114.384C204.647 114.384 202.645 115.35 202.645 118.276C202.645 121.174 204.661 122.154 206.467 122.154ZM206.467 120.572C205.319 120.572 204.899 119.536 204.899 118.29C204.899 116.946 205.389 116.036 206.467 116.036C207.587 116.036 208.021 117.044 208.021 118.29C208.021 119.648 207.531 120.572 206.467 120.572ZM214.719 122.098C215.209 122.098 216.035 122.028 216.203 121.986V120.376C216.049 120.432 215.713 120.46 215.461 120.46C214.649 120.46 214.425 120.208 214.425 119.41V116.176H216.343V114.538H214.425V111.976H212.185V114.538H210.939V116.176H212.185V119.9C212.185 121.3 212.507 122.098 214.719 122.098ZM220.973 122.154C222.779 122.154 224.781 121.174 224.781 118.276C224.781 115.35 222.779 114.384 220.973 114.384C219.153 114.384 217.151 115.35 217.151 118.276C217.151 121.174 219.167 122.154 220.973 122.154ZM220.973 120.572C219.825 120.572 219.405 119.536 219.405 118.29C219.405 116.946 219.895 116.036 220.973 116.036C222.093 116.036 222.527 117.044 222.527 118.29C222.527 119.648 222.037 120.572 220.973 120.572Z" fill="white"/>
<g clip-path="url(#clip0_511_7432)">
<path d="M170.395 67.6296C169.589 67.6296 168.936 66.976 168.936 66.1699V63.2507C168.936 62.4445 169.589 61.791 170.395 61.791C171.202 61.791 171.855 62.4445 171.855 63.2507V66.1699C171.855 66.976 171.202 67.6296 170.395 67.6296Z" fill="#66334D"/>
<path d="M198.129 63.2507V66.17C198.129 66.9757 197.475 67.6297 196.669 67.6297H179.153C178.348 67.6297 177.694 66.9757 177.694 66.17V63.2507C177.694 60.8365 179.658 58.8718 182.073 58.8718H193.75C196.164 58.8718 198.129 60.8365 198.129 63.2507Z" fill="#66334D"/>
<path d="M198.129 63.2507V66.17C198.129 66.9757 197.475 67.6297 196.669 67.6297H187.911V58.8718H193.75C196.164 58.8718 198.129 60.8365 198.129 63.2507Z" fill="#66334D"/>
<path d="M198.129 63.2507V66.17C198.129 66.9757 197.475 67.6297 196.669 67.6297H187.911V58.8718H193.75C196.164 58.8718 198.129 60.8365 198.129 63.2507Z" fill="#4D2739"/>
<path d="M212.822 69.0891V80.7662L187.911 83.1017L163 80.7662V69.0891C163 66.6749 164.965 64.7102 167.379 64.7102H208.443C210.858 64.7102 212.822 66.6749 212.822 69.0891Z" fill="#8C466A"/>
<path d="M212.822 69.0891V80.7662L187.911 83.1017V64.7102H208.443C210.858 64.7102 212.822 66.6749 212.822 69.0891Z" fill="#66334D"/>
<path d="M212.822 80.7664V92.4435C212.822 94.8577 210.858 96.8224 208.443 96.8224H167.379C164.965 96.8224 163 94.8577 163 92.4435V80.7664H212.822Z" fill="#FF8FB8"/>
<path d="M212.822 80.7664V92.4435C212.822 94.8577 210.858 96.8224 208.443 96.8224H187.911V80.7664H212.822Z" fill="#FF5F96"/>
<path d="M187.911 70.5488C182.277 70.5488 177.694 75.1321 177.694 80.7663C177.694 86.3898 182.268 90.9838 187.911 90.9838C193.557 90.9838 198.129 86.3879 198.129 80.7663C198.129 75.1321 193.545 70.5488 187.911 70.5488Z" fill="#FFF2FB"/>
<path d="M198.129 80.7663C198.129 86.3879 193.557 90.9838 187.911 90.9838V70.5488C193.545 70.5488 198.129 75.1321 198.129 80.7663Z" fill="#FFDFEA"/>
<path d="M187.911 76.3875C185.497 76.3875 183.532 78.3521 183.532 80.7664C183.532 83.1748 185.491 85.1453 187.911 85.1453C190.329 85.1453 192.29 83.1767 192.29 80.7664C192.29 78.3521 190.325 76.3875 187.911 76.3875Z" fill="#FFDFEA"/>
<path d="M192.29 80.7664C192.29 83.1767 190.329 85.1453 187.911 85.1453V76.3875C190.325 76.3875 192.29 78.3521 192.29 80.7664Z" fill="#FFBFBF"/>
<path d="M170.395 73.4681C171.202 73.4681 171.855 72.8146 171.855 72.0085C171.855 71.2023 171.202 70.5488 170.395 70.5488C169.589 70.5488 168.936 71.2023 168.936 72.0085C168.936 72.8146 169.589 73.4681 170.395 73.4681Z" fill="#97DE3D"/>
<path d="M205.427 73.4681H202.507C201.701 73.4681 201.048 72.8146 201.048 72.0085C201.048 71.2024 201.701 70.5488 202.507 70.5488H205.427C206.233 70.5488 206.886 71.2024 206.886 72.0085C206.886 72.8146 206.233 73.4681 205.427 73.4681Z" fill="#59C36A"/>
<path d="M189.371 48.4596V51.3789C189.371 52.1846 188.717 52.8386 187.911 52.8386C187.105 52.8386 186.451 52.1846 186.451 51.3789V48.4596C186.451 47.6539 187.105 47 187.911 47C188.717 47 189.371 47.6539 189.371 48.4596Z" fill="#FFE580"/>
<path d="M189.371 48.4596V51.3789C189.371 52.1846 188.717 52.8386 187.911 52.8386V47C188.717 47 189.371 47.6539 189.371 48.4596Z" fill="#FFCC66"/>
<path d="M191.686 54.9029C191.116 54.3329 191.116 53.4087 191.686 52.8387L193.75 50.7745C194.32 50.2044 195.244 50.2044 195.814 50.7745C196.384 51.3445 196.384 52.2686 195.814 52.8387L193.75 54.9029C193.18 55.4729 192.256 55.4729 191.686 54.9029Z" fill="#FFCC66"/>
<path d="M182.073 54.9029L180.009 52.8387C179.439 52.2686 179.439 51.3445 180.009 50.7745C180.578 50.2044 181.503 50.2044 182.073 50.7745L184.137 52.8387C184.707 53.4087 184.707 54.3329 184.137 54.9029C183.567 55.4728 182.643 55.473 182.073 54.9029Z" fill="#FFE580"/>
</g>
<defs>
<filter id="filter0_d_511_7432" x="-13" y="0" width="425" height="229" filterUnits="userSpaceOnUse" color-interpolation-filters="sRGB">
<feFlood flood-opacity="0" result="BackgroundImageFix"/>
<feColorMatrix in="SourceAlpha" type="matrix" values="0 0 0 0 0 0 0 0 0 0 0 0 0 0 0 0 0 0 127 0" result="hardAlpha"/>
<feOffset dx="12" dy="26"/>
<feGaussianBlur stdDeviation="25"/>
<feColorMatrix type="matrix" values="0 0 0 0 0.352941 0 0 0 0 0.423529 0 0 0 0 0.917647 0 0 0 0.07 0"/>
<feBlend mode="normal" in2="BackgroundImageFix" result="effect1_dropShadow_511_7432"/>
<feBlend mode="normal" in="SourceGraphic" in2="effect1_dropShadow_511_7432" result="shape"/>
</filter>
<clipPath id="clip0_511_7432">
<rect width="49.8223" height="49.8223" fill="white" transform="translate(163 47)"/>
</clipPath>
</defs>
</svg>
