<svg width="375" height="229" viewBox="0 0 375 229" fill="none" xmlns="http://www.w3.org/2000/svg">
<g opacity="0.1" filter="url(#filter0_d_511_7422)">
<rect x="25" y="24" width="325" height="129" rx="15" fill="white"/>
<rect x="25.5" y="24.5" width="324" height="128" rx="14.5" stroke="#F4F4F4"/>
</g>
<path d="M145.064 122H147.346V117.87H150.594V116.064H147.346V113.544H151.91V111.64H145.064V122ZM152.223 122H154.477V117.366C154.897 116.82 155.569 116.344 156.465 116.344C156.605 116.344 156.969 116.372 157.053 116.386L157.081 114.384H157.011C155.611 114.384 154.897 115.154 154.491 115.784H154.477V114.538H152.223V122ZM161.354 122.154C163.16 122.154 165.162 121.174 165.162 118.276C165.162 115.35 163.16 114.384 161.354 114.384C159.534 114.384 157.532 115.35 157.532 118.276C157.532 121.174 159.548 122.154 161.354 122.154ZM161.354 120.572C160.206 120.572 159.786 119.536 159.786 118.29C159.786 116.946 160.276 116.036 161.354 116.036C162.474 116.036 162.908 117.044 162.908 118.29C162.908 119.648 162.418 120.572 161.354 120.572ZM166.469 122H168.723V116.988C169.227 116.554 169.675 116.246 170.235 116.246C170.893 116.246 171.047 116.596 171.047 117.268V122H173.301V116.988C173.791 116.554 174.239 116.246 174.799 116.246C175.457 116.246 175.611 116.596 175.611 117.268V122H177.865V116.666C177.865 115.336 177.193 114.384 175.681 114.384C174.505 114.384 173.665 115.14 173.217 115.714C173.007 114.902 172.419 114.384 171.173 114.384C169.997 114.384 169.171 115.126 168.723 115.714V114.538H166.469V122ZM187.528 122.196C189.096 122.196 190.006 121.188 190.23 120.572H190.258V122H192.092V116.806H188.116V118.5H189.922C189.712 119.648 188.928 120.362 187.794 120.362C186.688 120.362 185.288 119.634 185.288 116.736C185.288 113.824 186.856 113.334 187.696 113.334C188.718 113.334 189.376 113.894 189.81 115.336L191.896 114.762C191.238 112.228 189.67 111.444 187.71 111.444C184.798 111.444 182.992 113.53 182.992 116.778C182.992 119.9 184.392 122.196 187.528 122.196ZM195.56 122.112C196.666 122.112 197.478 121.678 198.164 120.908C198.164 121.328 198.234 121.692 198.332 122H200.572C200.418 121.622 200.362 121.076 200.362 120.18V117.31C200.362 115.392 199.522 114.384 197.478 114.384C195.616 114.384 194.496 115.042 193.754 115.714L194.706 117.002C195.392 116.47 196.204 116.078 197.156 116.078C197.884 116.078 198.164 116.428 198.164 116.974V117.156C194.888 117.422 193.432 118.374 193.432 120.096C193.432 121.37 194.412 122.112 195.56 122.112ZM196.456 120.418C195.966 120.418 195.63 120.18 195.63 119.704C195.63 119.018 196.386 118.57 198.164 118.388V119.774C197.786 120.152 197.24 120.418 196.456 120.418ZM202.086 122H204.326V111.64H202.086V122ZM206.202 122H208.442V111.64H206.202V122ZM213.635 122.154C214.937 122.154 216.015 121.776 216.883 121.034L216.015 119.69C215.511 120.152 214.685 120.586 213.803 120.586C212.865 120.586 212.179 120.11 212.067 118.878H217.009V118.542C217.009 115.154 215.119 114.384 213.579 114.384C212.039 114.384 209.827 115.378 209.827 118.276C209.827 121.16 211.689 122.154 213.635 122.154ZM212.095 117.548C212.263 116.456 212.865 115.994 213.565 115.994C214.405 115.994 214.881 116.498 214.993 117.548H212.095ZM218.313 122H220.567V117.366C220.987 116.82 221.659 116.344 222.555 116.344C222.695 116.344 223.059 116.372 223.143 116.386L223.171 114.384H223.101C221.701 114.384 220.987 115.154 220.581 115.784H220.567V114.538H218.313V122ZM225.614 124.856C227.112 124.856 227.798 124.072 228.302 122.784L231.438 114.538H229.254L227.602 119.382H227.574L225.936 114.538H223.612L226.468 122.042L226.328 122.406C226.146 122.868 225.866 123.05 225.376 123.05C224.704 123.05 224.172 122.91 223.962 122.854L223.486 124.59C223.878 124.702 224.508 124.856 225.614 124.856Z" fill="white"/>
<g clip-path="url(#clip0_511_7422)">
<path d="M185.397 91.788C180.517 91.788 176.544 87.8153 176.544 82.9344V53.2891L166.48 55.5929C163.993 56.2471 162.502 58.8115 163.16 61.3218L171.788 93.5376C172.361 95.621 174.275 96.9999 176.33 96.9999C176.715 96.9999 177.107 96.9519 177.494 96.85L198.492 91.788H185.397Z" fill="#B0BEC5"/>
<path d="M213 52.7288V82.9345C213 86.1008 210.437 88.6633 207.271 88.6633H185.398C183.252 88.6633 181.377 87.4759 180.398 85.7259C179.94 84.9134 179.669 83.9552 179.669 82.9345V52.7288C179.669 49.5621 182.231 47 185.398 47H207.271C210.437 47 213 49.5621 213 52.7288Z" fill="#ECEFF1"/>
<path d="M194.251 61.5821C194.251 63.8833 192.386 65.7485 190.085 65.7485C187.784 65.7485 185.918 63.8833 185.918 61.5821C185.918 59.2812 187.784 57.416 190.085 57.416C192.386 57.416 194.251 59.2812 194.251 61.5821Z" fill="#FFC107"/>
<path d="M212.999 71.8729V82.9346C212.999 86.1009 210.437 88.6634 207.271 88.6634H185.397C183.252 88.6634 181.377 87.476 180.398 85.7259L201.042 65.0817C202.458 63.6655 204.792 63.6655 206.208 65.0817L212.999 71.8729Z" fill="#388E3C"/>
<path d="M206.875 88.6632H185.398C183.252 88.6632 181.377 87.4758 180.398 85.7258C179.94 84.9133 179.669 83.9552 179.669 82.9344V78.1222L185.418 72.3728C186.835 70.9561 189.168 70.9561 190.585 72.3728L206.875 88.6632Z" fill="#4CAF50"/>
</g>
<defs>
<filter id="filter0_d_511_7422" x="-13" y="0" width="425" height="229" filterUnits="userSpaceOnUse" color-interpolation-filters="sRGB">
<feFlood flood-opacity="0" result="BackgroundImageFix"/>
<feColorMatrix in="SourceAlpha" type="matrix" values="0 0 0 0 0 0 0 0 0 0 0 0 0 0 0 0 0 0 127 0" result="hardAlpha"/>
<feOffset dx="12" dy="26"/>
<feGaussianBlur stdDeviation="25"/>
<feColorMatrix type="matrix" values="0 0 0 0 0.352941 0 0 0 0 0.423529 0 0 0 0 0.917647 0 0 0 0.07 0"/>
<feBlend mode="normal" in2="BackgroundImageFix" result="effect1_dropShadow_511_7422"/>
<feBlend mode="normal" in="SourceGraphic" in2="effect1_dropShadow_511_7422" result="shape"/>
</filter>
<clipPath id="clip0_511_7422">
<rect width="50" height="50" fill="white" transform="translate(163 47)"/>
</clipPath>
</defs>
</svg>
