<svg width="323" height="342" viewBox="0 0 323 342" fill="none" xmlns="http://www.w3.org/2000/svg">
<path d="M113.283 56.6694H82.0549V161.465H113.283V56.6694Z" fill="#F5F5F5"/>
<path d="M113.283 56.6694H97.6688V161.178H113.283V56.6694Z" fill="#EBEBEB"/>
<path d="M96.6481 46.3752H85.6208V56.6626H96.6481V46.3752Z" fill="#F5F5F5"/>
<path d="M96.6481 46.3752H94.0189V56.6626H96.6481V46.3752Z" fill="#EBEBEB"/>
<path d="M79.4515 56.6693V56.0674H114.2V56.6693" fill="#E0E0E0"/>
<path d="M90.8599 61.1565H88.2178V67.0594H90.8599V61.1565Z" fill="#FAFAFA"/>
<path d="M97.6688 69.3711C97.6688 69.4325 94.1739 69.487 89.8586 69.487C85.5433 69.487 82.0549 69.4325 82.0549 69.3711C82.0549 69.3097 85.5498 69.262 89.8586 69.262C94.1674 69.262 97.6688 69.3097 97.6688 69.3711Z" fill="#E0E0E0"/>
<path d="M106.609 61.1565H103.967V67.0594H106.609V61.1565Z" fill="#E0E0E0"/>
<path d="M113.418 69.3711C113.418 69.4325 109.923 69.487 105.615 69.487C101.306 69.487 97.8044 69.4325 97.8044 69.3711C97.8044 69.3097 101.299 69.262 105.615 69.262C109.93 69.262 113.418 69.3097 113.418 69.3711Z" fill="#E0E0E0"/>
<path d="M106.609 72.8733H103.967V78.7762H106.609V72.8733Z" fill="#E0E0E0"/>
<path d="M113.418 81.0879C113.418 81.1493 109.923 81.2038 105.615 81.2038C101.306 81.2038 97.8044 81.1493 97.8044 81.0879C97.8044 81.0265 101.299 80.9788 105.615 80.9788C109.93 80.9788 113.418 81.0265 113.418 81.0879Z" fill="#E0E0E0"/>
<path d="M106.609 84.9392H103.967V90.8421H106.609V84.9392Z" fill="#E0E0E0"/>
<path d="M113.418 93.1604C113.418 93.2218 109.923 93.2695 105.615 93.2695C101.306 93.2695 97.8044 93.2218 97.8044 93.1604C97.8044 93.099 101.299 93.0513 105.615 93.0513C109.93 93.0513 113.418 93.099 113.418 93.1604Z" fill="#E0E0E0"/>
<path d="M106.609 97.0117H103.967V102.915H106.609V97.0117Z" fill="#E0E0E0"/>
<path d="M113.418 105.233C113.418 105.295 109.923 105.342 105.615 105.342C101.306 105.342 97.8044 105.295 97.8044 105.233C97.8044 105.172 101.299 105.117 105.615 105.117C109.93 105.117 113.418 105.172 113.418 105.233Z" fill="#E0E0E0"/>
<path d="M106.609 108.742H103.967V114.645H106.609V108.742Z" fill="#E0E0E0"/>
<path d="M113.418 116.964C113.418 117.025 109.923 117.08 105.615 117.08C101.306 117.08 97.8044 117.025 97.8044 116.964C97.8044 116.902 101.299 116.854 105.615 116.854C109.93 116.854 113.418 116.895 113.418 116.964Z" fill="#E0E0E0"/>
<path d="M106.609 120.514H103.967V126.417H106.609V120.514Z" fill="#E0E0E0"/>
<path d="M106.609 132.443H103.967V138.346H106.609V132.443Z" fill="#E0E0E0"/>
<path d="M113.418 128.729C113.418 128.79 109.923 128.844 105.615 128.844C101.306 128.844 97.8044 128.79 97.8044 128.729C97.8044 128.667 101.299 128.619 105.615 128.619C109.93 128.619 113.418 128.667 113.418 128.729Z" fill="#E0E0E0"/>
<path d="M90.8599 73.0513H88.2178V78.9542H90.8599V73.0513Z" fill="#FAFAFA"/>
<path d="M97.6687 81.2656C97.6687 81.327 94.1739 81.3816 89.8586 81.3816C85.5433 81.3816 82.042 81.327 82.042 81.2656C82.042 81.2042 85.5369 81.1565 89.8457 81.1565C94.1545 81.1565 97.6687 81.2042 97.6687 81.2656Z" fill="#E0E0E0"/>
<path d="M90.8599 84.946H88.2178V90.849H90.8599V84.946Z" fill="#FAFAFA"/>
<path d="M97.6687 93.1672C97.6687 93.2286 94.1739 93.2763 89.8586 93.2763C85.5433 93.2763 82.042 93.2286 82.042 93.1672C82.042 93.1058 85.5369 93.0513 89.8457 93.0513C94.1545 93.0513 97.6687 93.1058 97.6687 93.1672Z" fill="#E0E0E0"/>
<path d="M90.8599 96.8408H88.2178V102.744H90.8599V96.8408Z" fill="#FAFAFA"/>
<path d="M97.6687 105.062C97.6687 105.123 94.1739 105.171 89.8586 105.171C85.5433 105.171 82.042 105.123 82.042 105.062C82.042 105.001 85.5369 104.946 89.8457 104.946C94.1545 104.946 97.6687 105.001 97.6687 105.062Z" fill="#E0E0E0"/>
<path d="M90.8599 108.742H88.2178V114.645H90.8599V108.742Z" fill="#FAFAFA"/>
<path d="M97.6687 116.964C97.6687 117.025 94.1739 117.08 89.8586 117.08C85.5433 117.08 82.042 117.018 82.042 116.964C82.042 116.909 85.5369 116.854 89.8457 116.854C94.1545 116.854 97.6687 116.895 97.6687 116.964Z" fill="#E0E0E0"/>
<path d="M90.8599 120.637H88.2178V126.54H90.8599V120.637Z" fill="#FAFAFA"/>
<path d="M97.6688 128.852C97.6688 128.913 94.1739 128.967 89.8586 128.967C85.5433 128.967 82.0549 128.913 82.0549 128.852C82.0549 128.79 85.5498 128.742 89.8586 128.742C94.1674 128.742 97.6688 128.79 97.6688 128.852Z" fill="#E0E0E0"/>
<path d="M90.8599 132.532H88.2178V138.435H90.8599V132.532Z" fill="#FAFAFA"/>
<path d="M227.65 78.8857H196.423V183.681H227.65V78.8857Z" fill="#F5F5F5"/>
<path d="M227.657 78.8857H212.043V183.394H227.657V78.8857Z" fill="#EBEBEB"/>
<path d="M211.022 68.5984H199.995V78.8857H211.022V68.5984Z" fill="#F5F5F5"/>
<path d="M211.022 68.5984H208.393V78.8857H211.022V68.5984Z" fill="#EBEBEB"/>
<path d="M193.826 78.8856V78.2837H228.568V78.8856" fill="#E0E0E0"/>
<path d="M205.234 83.3728H202.592V89.2757H205.234V83.3728Z" fill="#FAFAFA"/>
<path d="M212.043 91.5942C212.043 91.6556 208.548 91.7033 204.233 91.7033C199.918 91.7033 196.423 91.6556 196.423 91.5942C196.423 91.5328 199.924 91.4783 204.233 91.4783C208.542 91.4783 212.043 91.5328 212.043 91.5942Z" fill="#E0E0E0"/>
<path d="M220.984 83.3728H218.342V89.2757H220.984V83.3728Z" fill="#E0E0E0"/>
<path d="M227.793 91.5942C227.793 91.6556 224.298 91.7033 219.982 91.7033C215.667 91.7033 212.179 91.6556 212.179 91.5942C212.179 91.5328 215.674 91.4783 219.982 91.4783C224.291 91.4783 227.793 91.5328 227.793 91.5942Z" fill="#E0E0E0"/>
<path d="M220.984 95.0896H218.342V100.993H220.984V95.0896Z" fill="#E0E0E0"/>
<path d="M227.793 103.284C227.793 103.345 224.298 103.393 219.982 103.393C215.667 103.393 212.179 103.345 212.179 103.284C212.179 103.222 215.674 103.168 219.982 103.168C224.291 103.168 227.793 103.284 227.793 103.284Z" fill="#E0E0E0"/>
<path d="M220.984 107.162H218.342V113.065H220.984V107.162Z" fill="#E0E0E0"/>
<path d="M227.793 115.384C227.793 115.445 224.298 115.493 219.982 115.493C215.667 115.493 212.179 115.445 212.179 115.384C212.179 115.322 215.674 115.268 219.982 115.268C224.291 115.268 227.793 115.322 227.793 115.384Z" fill="#E0E0E0"/>
<path d="M220.984 119.235H218.342V125.138H220.984V119.235Z" fill="#E0E0E0"/>
<path d="M227.793 127.449C227.793 127.518 224.298 127.565 219.982 127.565C215.667 127.565 212.179 127.518 212.179 127.449C212.179 127.381 215.674 127.34 219.982 127.34C224.291 127.34 227.793 127.388 227.793 127.449Z" fill="#E0E0E0"/>
<path d="M220.984 130.959H218.342V136.862H220.984V130.959Z" fill="#E0E0E0"/>
<path d="M227.793 139.18C227.793 139.241 224.298 139.289 219.982 139.289C215.667 139.289 212.179 139.241 212.179 139.18C212.179 139.119 215.674 139.064 219.982 139.064C224.291 139.064 227.793 139.119 227.793 139.18Z" fill="#E0E0E0"/>
<path d="M220.984 142.73H218.342V148.633H220.984V142.73Z" fill="#E0E0E0"/>
<path d="M220.984 154.659H218.342V160.562H220.984V154.659Z" fill="#E0E0E0"/>
<path d="M227.793 150.952C227.793 151.013 224.298 151.061 219.982 151.061C215.667 151.061 212.179 151.013 212.179 150.952C212.179 150.89 215.674 150.843 219.982 150.843C224.291 150.843 227.793 150.89 227.793 150.952Z" fill="#E0E0E0"/>
<path d="M205.234 95.2676H202.592V101.171H205.234V95.2676Z" fill="#FAFAFA"/>
<path d="M212.043 103.489C212.043 103.55 208.548 103.598 204.233 103.598C199.918 103.598 196.423 103.55 196.423 103.489C196.423 103.428 199.924 103.38 204.233 103.38C208.542 103.38 212.043 103.428 212.043 103.489Z" fill="#E0E0E0"/>
<path d="M205.234 107.169H202.592V113.072H205.234V107.169Z" fill="#FAFAFA"/>
<path d="M212.043 115.384C212.043 115.445 208.548 115.499 204.233 115.499C199.918 115.499 196.423 115.445 196.423 115.384C196.423 115.322 199.924 115.274 204.233 115.274C208.542 115.274 212.043 115.322 212.043 115.384Z" fill="#E0E0E0"/>
<path d="M205.234 119.064H202.592V124.967H205.234V119.064Z" fill="#FAFAFA"/>
<path d="M212.043 127.278C212.043 127.347 208.548 127.394 204.233 127.394C199.918 127.394 196.423 127.347 196.423 127.278C196.423 127.21 199.924 127.169 204.233 127.169C208.542 127.169 212.043 127.224 212.043 127.278Z" fill="#E0E0E0"/>
<path d="M205.234 130.959H202.592V136.862H205.234V130.959Z" fill="#FAFAFA"/>
<path d="M212.043 139.18C212.043 139.241 208.548 139.289 204.233 139.289C199.918 139.289 196.423 139.241 196.423 139.18C196.423 139.119 199.924 139.064 204.233 139.064C208.542 139.064 212.043 139.119 212.043 139.18Z" fill="#E0E0E0"/>
<path d="M205.234 142.86H202.592V148.763H205.234V142.86Z" fill="#FAFAFA"/>
<path d="M212.043 151.075C212.043 151.136 208.548 151.184 204.233 151.184C199.918 151.184 196.423 151.136 196.423 151.075C196.423 151.013 199.924 150.966 204.233 150.966C208.542 150.966 212.043 151.013 212.043 151.075Z" fill="#E0E0E0"/>
<path d="M205.234 154.755H202.592V160.658H205.234V154.755Z" fill="#FAFAFA"/>
<path d="M266.649 119.55H216.081V190.166H266.649V119.55Z" fill="#EBEBEB"/>
<path d="M266.643 119.55H242.935V190.166H266.643V119.55Z" fill="#E0E0E0"/>
<path d="M231.229 129.112H226.681V140.808H231.229V129.112Z" fill="#F5F5F5"/>
<path d="M231.229 174.885H226.681V186.582H231.229V174.885Z" fill="#F5F5F5"/>
<path d="M242.935 145.398C242.935 145.528 236.927 145.63 229.511 145.63C222.095 145.63 216.081 145.528 216.081 145.398C216.081 145.268 222.088 145.158 229.511 145.158C236.933 145.158 242.935 145.261 242.935 145.398Z" fill="#F5F5F5"/>
<path d="M231.229 152.169H226.681V163.866H231.229V152.169Z" fill="#F5F5F5"/>
<path d="M242.935 168.455C242.935 168.585 236.927 168.695 229.511 168.695C222.095 168.695 216.081 168.585 216.081 168.455C216.081 168.326 222.088 168.216 229.511 168.216C236.933 168.216 242.935 168.326 242.935 168.455Z" fill="#F5F5F5"/>
<path d="M252.521 129.112H247.974V140.808H252.521V129.112Z" fill="#F5F5F5"/>
<path d="M262.386 129.112H257.838V140.808H262.386V129.112Z" fill="#F5F5F5"/>
<path d="M252.521 151.301H247.974V162.997H252.521V151.301Z" fill="#F5F5F5"/>
<path d="M262.386 151.301H257.838V162.997H262.386V151.301Z" fill="#F5F5F5"/>
<path d="M252.521 173.497H247.974V185.193H252.521V173.497Z" fill="#F5F5F5"/>
<path d="M262.386 173.497H257.838V185.193H262.386V173.497Z" fill="#F5F5F5"/>
<path d="M270.448 117.087H212.276V119.632H270.448V117.087Z" fill="#E0E0E0"/>
<path d="M266.998 119.878C266.998 120.008 255.7 120.11 241.759 120.11C227.818 120.11 216.513 120.008 216.513 119.878C216.513 119.748 227.818 119.638 241.759 119.638C255.7 119.638 266.998 119.741 266.998 119.878Z" fill="#EBEBEB"/>
<path d="M101.7 191.575H55.7433L55.5431 114.673H101.5L101.7 191.575Z" fill="#EBEBEB"/>
<path d="M101.5 114.673H78.5214V191.575H101.5V114.673Z" fill="#E0E0E0"/>
<path d="M77.0161 99.5356H60.7886V114.673H77.0161V99.5356Z" fill="#EBEBEB"/>
<path d="M77.0161 99.5356H73.1466V114.673H77.0161V99.5356Z" fill="#E0E0E0"/>
<path d="M102.843 113.79H51.7123V114.673H102.843V113.79Z" fill="#E0E0E0"/>
<path d="M68.5018 121.28H64.6129V129.967H68.5018V121.28Z" fill="white"/>
<path d="M78.5213 133.38C78.5213 133.468 73.3533 133.543 67.029 133.543C60.7047 133.543 55.556 133.461 55.556 133.38C55.556 133.298 60.724 133.216 67.0419 133.216C73.3598 133.216 78.5213 133.277 78.5213 133.38Z" fill="#E0E0E0"/>
<path d="M91.6803 121.28H87.7914V129.967H91.6803V121.28Z" fill="#F5F5F5"/>
<path d="M101.7 133.38C101.7 133.468 96.5318 133.543 90.2074 133.543C83.8831 133.543 78.7216 133.468 78.7216 133.38C78.7216 133.291 83.8896 133.216 90.2074 133.216C96.5253 133.216 101.7 133.277 101.7 133.38Z" fill="#EBEBEB"/>
<path d="M91.6803 138.524H87.7914V147.21H91.6803V138.524Z" fill="#F5F5F5"/>
<path d="M101.7 150.616C101.7 150.705 96.5318 150.78 90.2074 150.78C83.8831 150.78 78.7216 150.705 78.7216 150.616C78.7216 150.528 83.8896 150.446 90.2074 150.446C96.5253 150.446 101.7 150.521 101.7 150.616Z" fill="#EBEBEB"/>
<path d="M91.6803 156.287H87.7914V164.974H91.6803V156.287Z" fill="#F5F5F5"/>
<path d="M101.7 168.38C101.7 168.468 96.5318 168.543 90.2074 168.543C83.8831 168.543 78.7216 168.468 78.7216 168.38C78.7216 168.291 83.8896 168.209 90.2074 168.209C96.5253 168.209 101.7 168.264 101.7 168.38Z" fill="#EBEBEB"/>
<path d="M91.6803 174.044H87.7914V182.73H91.6803V174.044Z" fill="#F5F5F5"/>
<path d="M101.7 186.143C101.7 186.232 96.5318 186.307 90.2074 186.307C83.8831 186.307 78.7216 186.232 78.7216 186.143C78.7216 186.054 83.8896 185.973 90.2074 185.973C96.5253 185.973 101.7 186.048 101.7 186.143Z" fill="#EBEBEB"/>
<path d="M68.5018 138.784H64.6129V147.47H68.5018V138.784Z" fill="white"/>
<path d="M78.5213 150.876C78.5213 150.972 73.3533 151.04 67.029 151.04C60.7047 151.04 55.556 150.972 55.556 150.876C55.556 150.781 60.724 150.713 67.0419 150.713C73.3598 150.713 78.5213 150.788 78.5213 150.876Z" fill="#E0E0E0"/>
<path d="M68.5018 156.287H64.6129V164.974H68.5018V156.287Z" fill="white"/>
<path d="M78.5213 168.38C78.5213 168.475 73.3533 168.55 67.029 168.55C60.7047 168.55 55.556 168.475 55.556 168.38C55.556 168.284 60.724 168.216 67.0419 168.216C73.3598 168.216 78.5213 168.264 78.5213 168.38Z" fill="#E0E0E0"/>
<path d="M68.5018 173.798H64.6129V182.484H68.5018V173.798Z" fill="white"/>
<path d="M78.5213 185.89C78.5213 185.979 73.3533 186.054 67.029 186.054C60.7047 186.054 55.556 185.979 55.556 185.89C55.556 185.802 60.724 185.727 67.0419 185.727C73.3598 185.727 78.5213 185.795 78.5213 185.89Z" fill="#E0E0E0"/>
<path d="M283.697 99.1322C283.943 97.2581 281.449 95.7122 279.576 95.5618C278.681 95.5997 277.784 95.5193 276.908 95.3224C275.08 94.6384 274.324 92.1349 272.56 91.3415C271.223 90.7395 269.686 91.2731 268.387 91.9639C267.089 92.6548 265.803 93.5234 264.362 93.6192C263.07 93.7081 261.733 93.2088 260.635 93.8654C259.815 94.3511 259.382 95.3497 258.626 95.9174C257.838 96.4287 256.927 96.6898 256.003 96.6698C255.081 96.6426 254.163 96.8004 253.296 97.135C252.866 97.3109 252.501 97.6301 252.256 98.0445C252.012 98.4589 251.901 98.9462 251.94 99.4332L283.697 99.1322Z" fill="#F5F5F5"/>
<path d="M205.951 45.828C206.332 42.9073 202.431 40.4997 199.491 40.2466C198.096 40.1303 196.642 40.356 195.325 39.8704C192.456 38.8102 191.306 34.884 188.509 33.6323C186.416 32.7021 183.987 33.5297 181.978 34.6104C179.969 35.6911 177.947 37.0523 175.68 37.2096C173.742 37.3396 171.565 36.5667 169.866 37.5858C168.574 38.3451 167.928 39.9183 166.726 40.8417C165.525 41.7651 164.052 41.9361 162.618 42.0181C161.183 42.1002 159.691 42.1207 158.38 42.75C157.068 43.3793 155.99 44.8567 156.261 46.3479L205.951 45.828Z" fill="#EBEBEB"/>
<path d="M73.1272 86.3208C73.4309 83.9883 70.3236 82.0663 67.9592 81.8679C66.8481 81.7722 65.6918 81.9569 64.6323 81.567C62.3455 80.7188 61.4023 77.5929 59.2059 76.5943C57.5328 75.8487 55.6142 76.5122 53.9992 77.3741C52.3842 78.2359 50.7692 79.3235 48.9733 79.4261C47.4035 79.5287 45.6981 78.9131 44.3221 79.727C43.295 80.3289 42.7588 81.5807 41.8156 82.3194C40.834 82.9643 39.6952 83.2901 38.5404 83.2565C37.3895 83.2295 36.2439 83.429 35.1618 83.8447C34.1218 84.3509 33.2561 85.5205 33.4758 86.7107L73.1272 86.3208Z" fill="#F5F5F5"/>
<path d="M50.2782 137.764C47.7685 137.829 45.3227 138.616 43.2045 140.043C41.0863 141.47 39.3758 143.481 38.2573 145.861C37.1389 148.241 36.6548 150.899 36.8572 153.548C37.0596 156.198 37.9409 158.739 39.4061 160.897L39.5353 161.096L49.3092 175.166C49.5087 175.452 49.7703 175.684 50.072 175.841C50.3737 175.998 50.7066 176.077 51.0428 176.069C51.379 176.062 51.7085 175.969 52.0038 175.799C52.2991 175.628 52.5514 175.385 52.7395 175.09L61.5703 161.185C63.237 158.49 64.3869 155.665 64.3869 152.34C64.383 150.397 64.013 148.473 63.2983 146.683C62.5836 144.893 61.5387 143.271 60.2248 141.914C58.9109 140.556 57.3544 139.49 55.6465 138.778C53.9386 138.065 52.1135 137.721 50.2782 137.764ZM50.6077 162.997C48.5558 162.997 46.5499 162.353 44.8438 161.146C43.1377 159.939 41.8079 158.223 41.0227 156.216C40.2374 154.209 40.032 152 40.4323 149.869C40.8326 147.738 41.8207 145.781 43.2716 144.245C44.7226 142.708 46.5712 141.662 48.5837 141.238C50.5962 140.814 52.6822 141.032 54.5779 141.863C56.4737 142.695 58.094 144.103 59.234 145.909C60.374 147.716 60.9825 149.84 60.9825 152.012C60.9825 154.926 59.8894 157.72 57.9438 159.78C55.9981 161.84 53.3593 162.997 50.6077 162.997Z" fill="#4D61A3"/>
<g opacity="0.3">
<path d="M50.2782 137.764C47.7685 137.829 45.3227 138.616 43.2045 140.043C41.0863 141.47 39.3758 143.481 38.2573 145.861C37.1389 148.241 36.6548 150.899 36.8572 153.548C37.0596 156.198 37.9409 158.739 39.4061 160.897L39.5353 161.096L49.3092 175.166C49.5087 175.452 49.7703 175.684 50.072 175.841C50.3737 175.998 50.7066 176.077 51.0428 176.069C51.379 176.062 51.7085 175.969 52.0038 175.799C52.2991 175.628 52.5514 175.385 52.7395 175.09L61.5703 161.185C63.237 158.49 64.3869 155.665 64.3869 152.34C64.383 150.397 64.013 148.473 63.2983 146.683C62.5836 144.893 61.5387 143.271 60.2248 141.914C58.9109 140.556 57.3544 139.49 55.6465 138.778C53.9386 138.065 52.1135 137.721 50.2782 137.764ZM50.6077 162.997C48.5558 162.997 46.5499 162.353 44.8438 161.146C43.1377 159.939 41.8079 158.223 41.0227 156.216C40.2374 154.209 40.032 152 40.4323 149.869C40.8326 147.738 41.8207 145.781 43.2716 144.245C44.7226 142.708 46.5712 141.662 48.5837 141.238C50.5962 140.814 52.6822 141.032 54.5779 141.863C56.4737 142.695 58.094 144.103 59.234 145.909C60.374 147.716 60.9825 149.84 60.9825 152.012C60.9825 154.926 59.8894 157.72 57.9438 159.78C55.9981 161.84 53.3593 162.997 50.6077 162.997Z" fill="black"/>
</g>
<path d="M49.4642 137.765C45.924 137.865 42.5547 139.397 40.0493 142.048C37.5439 144.698 36.093 148.264 35.9951 152.012C35.9098 155.196 36.8179 158.322 38.5791 160.904L38.7148 161.103L48.4823 175.172C48.6806 175.465 48.943 175.702 49.2469 175.864C49.5509 176.025 49.8873 176.106 50.2273 176.099C50.5673 176.092 50.9007 175.998 51.1987 175.825C51.4968 175.652 51.7506 175.404 51.9384 175.104L60.7692 161.198C62.4424 158.503 63.5858 155.678 63.5858 152.354C63.5837 150.408 63.2145 148.482 62.4998 146.689C61.7851 144.896 60.7393 143.273 59.4238 141.914C58.1084 140.555 56.5498 139.488 54.8395 138.775C53.1292 138.063 51.3017 137.719 49.4642 137.765ZM49.7872 161.021C48.2339 161.019 46.7158 160.53 45.4248 159.615C44.1338 158.701 43.128 157.401 42.5344 155.881C41.9409 154.361 41.7862 152.689 42.0901 151.076C42.3939 149.463 43.1426 147.982 44.2414 146.819C45.3403 145.657 46.74 144.865 48.2636 144.545C49.7872 144.225 51.3663 144.39 52.8013 145.019C54.2363 145.649 55.4628 146.715 56.3256 148.083C57.1885 149.45 57.6491 151.058 57.6491 152.703C57.6482 153.795 57.4442 154.877 57.0486 155.885C56.6531 156.894 56.0737 157.811 55.3437 158.582C54.6137 159.354 53.7472 159.966 52.7938 160.383C51.8405 160.8 50.8188 161.015 49.7872 161.014V161.021Z" fill="#4D61A3"/>
<path d="M266.708 123.913C264.792 123.958 262.925 124.556 261.308 125.641C259.69 126.727 258.383 128.261 257.528 130.076C256.673 131.89 256.302 133.918 256.456 135.94C256.609 137.961 257.282 139.9 258.4 141.547L258.503 141.697L265.952 152.416C266.104 152.629 266.301 152.801 266.528 152.917C266.755 153.034 267.005 153.092 267.257 153.087C267.509 153.081 267.756 153.013 267.979 152.887C268.201 152.76 268.392 152.58 268.536 152.361L275.267 141.766C276.606 139.799 277.356 137.452 277.418 135.028C277.415 133.551 277.134 132.088 276.592 130.727C276.05 129.365 275.258 128.131 274.261 127.096C273.264 126.062 272.083 125.248 270.786 124.701C269.489 124.155 268.103 123.887 266.708 123.913ZM266.959 143.147C265.397 143.147 263.869 142.657 262.569 141.738C261.27 140.82 260.256 139.514 259.657 137.985C259.058 136.457 258.9 134.775 259.203 133.152C259.506 131.529 260.256 130.037 261.359 128.865C262.463 127.693 263.869 126.893 265.401 126.567C266.933 126.241 268.522 126.403 269.968 127.033C271.413 127.662 272.649 128.731 273.521 130.104C274.393 131.477 274.861 133.093 274.867 134.748C274.87 135.85 274.668 136.941 274.272 137.96C273.876 138.979 273.294 139.905 272.56 140.686C271.825 141.466 270.952 142.085 269.991 142.508C269.03 142.93 268 143.147 266.959 143.147Z" fill="#4D61A3"/>
<g opacity="0.3">
<path d="M266.708 123.913C264.792 123.958 262.925 124.556 261.308 125.641C259.69 126.727 258.383 128.261 257.528 130.076C256.673 131.89 256.302 133.918 256.456 135.94C256.609 137.961 257.282 139.9 258.4 141.547L258.503 141.697L265.952 152.416C266.104 152.629 266.301 152.801 266.528 152.917C266.755 153.034 267.005 153.092 267.257 153.087C267.509 153.081 267.756 153.013 267.979 152.887C268.201 152.76 268.392 152.58 268.536 152.361L275.267 141.766C276.606 139.799 277.356 137.452 277.418 135.028C277.415 133.551 277.134 132.088 276.592 130.727C276.05 129.365 275.258 128.131 274.261 127.096C273.264 126.062 272.083 125.248 270.786 124.701C269.489 124.155 268.103 123.887 266.708 123.913ZM266.959 143.147C265.397 143.147 263.869 142.657 262.569 141.738C261.27 140.82 260.256 139.514 259.657 137.985C259.058 136.457 258.9 134.775 259.203 133.152C259.506 131.529 260.256 130.037 261.359 128.865C262.463 127.693 263.869 126.893 265.401 126.567C266.933 126.241 268.522 126.403 269.968 127.033C271.413 127.662 272.649 128.731 273.521 130.104C274.393 131.477 274.861 133.093 274.867 134.748C274.87 135.85 274.668 136.941 274.272 137.96C273.876 138.979 273.294 139.905 272.56 140.686C271.825 141.466 270.952 142.085 269.991 142.508C269.03 142.93 268 143.147 266.959 143.147Z" fill="black"/>
</g>
<path d="M266.087 123.913C264.174 123.962 262.309 124.562 260.694 125.649C259.079 126.737 257.775 128.27 256.922 130.084C256.07 131.899 255.701 133.925 255.855 135.945C256.01 137.965 256.682 139.902 257.799 141.547L257.896 141.697L265.338 152.416C265.49 152.634 265.689 152.811 265.919 152.931C266.149 153.051 266.403 153.111 266.66 153.106C266.916 153.1 267.167 153.03 267.393 152.9C267.618 152.771 267.811 152.586 267.954 152.361L274.686 141.766C276.023 139.799 276.77 137.451 276.83 135.028C276.828 133.547 276.547 132.082 276.003 130.717C275.459 129.353 274.664 128.117 273.664 127.082C272.663 126.047 271.478 125.234 270.177 124.689C268.876 124.145 267.486 123.882 266.087 123.913ZM266.333 141.636C265.148 141.636 263.991 141.264 263.006 140.567C262.021 139.871 261.254 138.88 260.8 137.722C260.347 136.563 260.228 135.288 260.46 134.058C260.691 132.828 261.261 131.698 262.098 130.812C262.936 129.925 264.003 129.321 265.165 129.076C266.326 128.832 267.53 128.957 268.625 129.437C269.719 129.917 270.654 130.73 271.312 131.773C271.97 132.815 272.321 134.041 272.321 135.295C272.322 136.128 272.168 136.953 271.867 137.723C271.567 138.492 271.125 139.192 270.569 139.781C270.013 140.37 269.352 140.837 268.626 141.155C267.899 141.473 267.12 141.637 266.333 141.636Z" fill="#4D61A3"/>
<path d="M57.8235 190.282L11.6862 311.596L98.192 296.534L161.636 311.596L226.61 296.534L313.504 314.086L266.985 190.282L215.079 176.438L162.598 187.026L108.961 176.438L57.8235 190.282Z" fill="white"/>
<path d="M57.8235 190.282L58.6698 190.043L61.1956 189.359L71.0924 186.657L108.941 176.397H108.974L162.592 186.951H162.547L215.028 176.349H215.118L267.018 190.152H267.095V190.227L313.607 314.031L313.724 314.332L313.42 314.271L268.723 305.242L226.526 296.719H226.597L161.616 311.767H161.578L98.1404 296.719H98.1921L11.6797 311.767L11.4666 311.801L11.5505 311.589C25.8207 274.134 37.3905 243.805 45.3622 222.84L54.5741 198.716L56.9708 192.45C57.5134 191.041 57.7977 190.323 57.7977 190.323C57.7977 190.323 57.5328 191.055 56.9966 192.478L54.6194 198.77L45.4914 222.895L11.8025 311.644L11.6668 311.466L98.1921 296.377H98.2502L161.687 311.425H161.623L226.597 296.377H226.63L268.827 304.9L313.523 313.929L313.336 314.168L266.824 190.364L266.927 190.46L215.028 176.602H215.118L162.618 187.142H162.572L108.954 176.527L71.144 186.732L61.2279 189.393L58.6892 190.077L57.8235 190.282Z" fill="#263238"/>
<path d="M60.5174 193.538L19.7612 305.488L97.811 292.054L162.598 307.93L226.61 291.651L306.198 307.93L264.292 193.538L215.848 180.918L162.598 191.506L108.192 180.918L60.5174 193.538Z" fill="white"/>
<path d="M24.2897 293.053L86.3251 277.834L84.0382 263.689L89.1933 260.248L81.17 227.204L56.3636 204.94L24.2897 293.053Z" fill="#455A64"/>
<path d="M19.7612 305.488L22.7845 297.184L126.803 271.596L132.449 288.06L130.621 291.384L111.086 295.31L97.811 292.054L19.7612 305.488Z" fill="#EBEBEB"/>
<path d="M132.449 270.002L136.577 286.288L148.561 291.801L165.602 283.785L201.358 272.759L190.202 254.961L132.449 270.002Z" fill="#EBEBEB"/>
<path d="M90.9051 276.035L110.233 271.596L106.377 258.299L92.294 261.897L88.5472 264.701L90.9051 276.035Z" fill="#E0E0E0"/>
<path d="M86.9581 231.965L93.9737 256.349L104.943 253.791L102.966 244.427L127.094 238.702L86.9581 231.965Z" fill="#455A64"/>
<path d="M58.1918 199.933L88.5473 225.734L128.845 233.825L171.83 222.512L152.211 189.482L108.192 180.918L60.5174 193.538L58.1918 199.933Z" fill="#EBEBEB"/>
<path d="M158.083 190.624L221.1 293.053L226.61 291.651L165.615 190.904L162.598 191.506L158.083 190.624Z" fill="#EBEBEB"/>
<path d="M107.023 247.006L115.007 271.596L185.899 252.416L172.779 228.771L107.023 247.006Z" fill="#E0E0E0"/>
<path d="M146.461 303.976L147.152 302.889L151.81 295.563L162.979 291.801L170.667 285.672L203.981 276.035L214.33 294.77L162.598 307.93" fill="#E0E0E0"/>
<path d="M205.48 182.977L222.172 202.642L264.292 193.538L215.848 180.918L205.48 182.977Z" fill="#E0E0E0"/>
<path d="M273.155 217.731L242.224 226.835L226.61 204.94L265.345 196.424L273.155 217.731Z" fill="#E0E0E0"/>
<path d="M168.923 190.241L201.358 239.571L238.788 228.196L201.358 183.798L168.923 190.241Z" fill="#EBEBEB"/>
<path d="M259.595 298.395L297.018 282.875L306.198 307.93L259.595 298.395Z" fill="#E0E0E0"/>
<path d="M220.454 236.623L240.79 231.007L262.27 258.299L241.365 265.645L220.454 236.623Z" fill="#455A64"/>
<path d="M245.37 228.771L267.999 256.24L285.041 250.18L273.833 219.591L245.37 228.771Z" fill="#E0E0E0"/>
<path d="M262.269 291.986L245.37 267.163L286.217 253.381L294.511 276.035L289.188 281.705L262.269 291.986Z" fill="#455A64"/>
<path d="M203.342 243.196L234.388 293.053L253.51 297.15L257.115 295.406L217.773 238.593L203.342 243.196Z" fill="#E0E0E0"/>
<path d="M76.1053 280.344L68.3727 241.835L41.0986 246.883L24.2897 293.053L76.1053 280.344Z" fill="#E0E0E0"/>
<path d="M101.183 182.772V200.405L107.023 201.185L123.328 221.295L137.346 219.591L144.019 229.831L128.845 233.825L88.5473 225.734L58.1918 199.933L60.5174 193.538L101.183 182.772Z" fill="#455A64"/>
<path d="M186.429 186.917L209.33 222.3L229.059 216.657L201.358 183.798L186.429 186.917Z" fill="#E0E0E0"/>
<path d="M253.658 223.47L245.37 209.755L267.773 203.052L273.155 217.731L253.658 223.47Z" fill="#EBEBEB"/>
<path d="M220.454 270.679L231.3 266.705L252.334 296.897L234.388 293.053L220.454 270.679Z" fill="#EBEBEB"/>
<path d="M120.421 297.595L130.505 296.295L133.864 291.09L146.461 295.283L143.167 303.169L120.421 297.595Z" fill="#455A64"/>
<path d="M60.5173 193.572L63.6569 192.717L72.8818 190.255L108.173 180.863H108.205L162.618 191.417H162.572L215.822 180.809H215.88L264.33 193.415H264.401V193.497C277.263 228.456 291.43 267.143 306.353 307.868L306.462 308.169L306.165 308.108L266.236 299.941L226.578 291.822H226.649L162.637 308.101H162.559L97.7786 292.212H97.8368L19.7806 305.618L19.5739 305.652L19.6449 305.44C32.2613 270.864 42.4746 242.875 49.5289 223.531C53.0625 213.873 55.8015 206.37 57.662 201.281L59.7874 195.501C60.2654 194.194 60.5173 193.538 60.5173 193.538C60.5173 193.538 60.2783 194.222 59.8067 195.528L57.7137 201.329L49.6322 223.627L19.8775 305.536L19.7418 305.365L97.7851 291.904H97.8432L162.631 307.8H162.559L226.572 291.514H226.61L266.301 299.592L306.204 307.759L306.017 307.998C291.101 267.266 276.947 228.607 264.124 193.599L264.227 193.695L215.777 181.062H215.835L162.579 191.623H162.534L108.14 181.007L72.9335 190.296L63.6892 192.724L60.5173 193.572Z" fill="#263238"/>
<g opacity="0.2">
<path d="M161.636 311.596L162.598 187.026L108.961 176.438L98.192 296.534L161.636 311.596Z" fill="black"/>
</g>
<g opacity="0.2">
<path d="M215.079 176.438L226.61 296.534L313.504 314.086L266.985 190.282L215.079 176.438Z" fill="black"/>
</g>
<path d="M163.012 69.1454C125.544 70.0688 94.9814 102.408 94.0899 142.08C93.6955 158.366 98.3592 174.338 107.365 187.546L108.056 188.538L108.153 188.681L158.154 260.693C159.174 262.162 160.513 263.349 162.057 264.155C163.602 264.961 165.307 265.362 167.028 265.324C168.75 265.285 170.438 264.809 171.949 263.935C173.46 263.062 174.751 261.816 175.712 260.303L220.932 189.167C229.485 175.35 235.351 160.918 235.351 143.9C235.351 133.927 233.467 124.055 229.81 114.864C226.153 105.674 220.796 97.3511 214.056 90.3855C207.315 83.4199 199.327 77.9523 190.561 74.3046C181.794 70.6569 172.428 68.9028 163.012 69.1454ZM164.691 198.278C154.19 198.279 143.924 194.983 135.192 188.807C126.459 182.63 119.653 173.851 115.633 163.578C111.614 153.306 110.561 142.002 112.609 131.096C114.657 120.191 119.714 110.173 127.139 102.31C134.564 94.4472 144.025 89.0923 154.324 86.9226C164.624 84.7528 175.3 85.8658 185.002 90.1206C194.704 94.3754 202.997 101.581 208.831 110.826C214.665 120.071 217.78 130.941 217.78 142.06C217.78 156.969 212.187 171.267 202.231 181.81C192.275 192.352 178.772 198.276 164.691 198.278Z" fill="#4D61A3"/>
<g opacity="0.3">
<path d="M163.012 69.1454C125.544 70.0688 94.9814 102.408 94.0899 142.08C93.6955 158.366 98.3592 174.338 107.365 187.546L108.056 188.538L108.153 188.681L158.154 260.693C159.174 262.162 160.513 263.349 162.057 264.155C163.602 264.961 165.307 265.362 167.028 265.324C168.75 265.285 170.438 264.809 171.949 263.935C173.46 263.062 174.751 261.816 175.712 260.303L220.932 189.167C229.485 175.35 235.351 160.918 235.351 143.9C235.351 133.927 233.467 124.055 229.81 114.864C226.153 105.674 220.796 97.3511 214.056 90.3855C207.315 83.4199 199.327 77.9523 190.561 74.3046C181.794 70.6569 172.428 68.9028 163.012 69.1454ZM164.691 198.278C154.19 198.279 143.924 194.983 135.192 188.807C126.459 182.63 119.653 173.851 115.633 163.578C111.614 153.306 110.561 142.002 112.609 131.096C114.657 120.191 119.714 110.173 127.139 102.31C134.564 94.4472 144.025 89.0923 154.324 86.9226C164.624 84.7528 175.3 85.8658 185.002 90.1206C194.704 94.3754 202.997 101.581 208.831 110.826C214.665 120.071 217.78 130.941 217.78 142.06C217.78 156.969 212.187 171.267 202.231 181.81C192.275 192.352 178.772 198.276 164.691 198.278Z" fill="black"/>
</g>
<path d="M158.826 69.1454C121.358 70.0688 90.7953 102.408 89.9038 142.08C89.5094 158.366 94.1731 174.338 103.179 187.546L103.87 188.538L103.967 188.681L153.968 260.693C154.988 262.162 156.327 263.349 157.871 264.155C159.416 264.961 161.121 265.362 162.842 265.324C164.564 265.285 166.252 264.809 167.763 263.935C169.274 263.062 170.565 261.816 171.526 260.303L216.746 189.167C225.299 175.35 231.165 160.918 231.165 143.9C231.165 133.927 229.281 124.055 225.624 114.864C221.967 105.674 216.61 97.3511 209.87 90.3855C203.129 83.4199 195.141 77.9523 186.374 74.3046C177.608 70.6569 168.242 68.9028 158.826 69.1454ZM160.505 198.278C150.004 198.279 139.738 194.983 131.006 188.807C122.273 182.63 115.467 173.851 111.447 163.578C107.428 153.306 106.375 142.002 108.423 131.096C110.471 120.191 115.528 110.173 122.953 102.31C130.378 94.4472 139.839 89.0923 150.138 86.9226C160.438 84.7528 171.114 85.8658 180.816 90.1206C190.518 94.3754 198.811 101.581 204.645 110.826C210.479 120.071 213.593 130.941 213.593 142.06C213.593 156.969 208 171.267 198.045 181.81C188.089 192.352 174.586 198.276 160.505 198.278Z" fill="#4D61A3"/>
<g opacity="0.3">
<path d="M191.048 184.461C190.195 185.48 134.051 201.178 133.205 202.197C143.968 205.672 157.107 208.695 168.361 208.004C174.698 207.621 181.281 206.424 186.319 202.293C191.358 198.161 194.097 190.357 191.048 184.461Z" fill="black"/>
</g>
<path d="M137.43 71.0127C135.81 72.8364 134.63 75.0477 133.991 77.4582C133.353 79.8687 133.273 82.407 133.761 84.8569C134.252 87.2235 135.234 89.8637 134.006 91.9089C132.779 93.9541 129.924 94.3029 128.78 96.3754C127.424 98.8036 129.232 101.847 129.006 104.679C128.86 106 128.275 107.222 127.355 108.127C126.435 109.031 125.241 109.56 123.987 109.618C127.224 111.693 130.939 112.781 134.723 112.764C135.499 111.341 136.272 109.919 137.042 108.496C136.151 110.008 136.719 112.107 137.94 113.332C139.161 114.556 140.867 115.069 142.527 115.384C146.51 116.061 150.587 115.754 154.439 114.485C158.29 113.217 161.813 111.022 164.73 108.072" fill="#263238"/>
<path d="M182.728 85.8556C181.92 84.1046 180.744 82.5451 180.144 80.7119C178.787 76.7789 180.047 71.9294 177.702 68.5573C176.035 66.1496 173.051 65.2946 170.266 64.8226C167.482 64.3506 164.53 64.036 162.269 62.2645C160.609 60.958 159.504 58.9881 157.85 57.6817C155.492 55.8143 152.333 55.5339 149.4 55.7733C146.468 56.0127 143.315 56.7719 140.828 58.5845C138.341 60.3971 136.442 63.3315 136.377 66.5326C136.345 68.0921 136.732 69.6653 136.474 71.1975C136.19 72.887 135.182 74.3234 134.62 75.9376C134.091 77.6704 134.121 79.5402 134.706 81.2528C135.291 82.9653 136.397 84.4233 137.85 85.3973L162.075 110.411C166.597 111.492 176.778 107.86 179.659 103.995C182.54 100.131 184.756 90.2879 182.728 85.8556Z" fill="#263238"/>
<path d="M137.876 81.7516C137.876 75.2605 141.461 67.0525 147.566 67.3329L166.881 71.1565C167.779 71.1984 168.63 71.5955 169.265 72.2692C169.9 72.9429 170.274 73.8443 170.312 74.7954L171.151 123.469H171.281C171.281 123.469 167.792 137.45 154.975 134.132C152.43 133.448 151.099 130.671 150.453 127.737H150.331C150.298 127.381 150.279 127.053 150.253 126.718C149.871 124.524 149.708 122.293 149.769 120.062C149.491 116.143 149.401 114.536 149.401 114.59C149.401 114.645 141.513 113.742 139.258 103.065C138.141 97.812 137.876 88.9678 137.876 81.7516Z" fill="#FFBE9D"/>
<path d="M155.57 88.407C155.576 88.5867 155.616 88.7632 155.688 88.9265C155.759 89.0898 155.86 89.2366 155.984 89.3586C156.109 89.4806 156.255 89.5753 156.415 89.6373C156.574 89.6994 156.744 89.7276 156.913 89.7202C157.082 89.7258 157.249 89.6953 157.406 89.6306C157.563 89.566 157.706 89.4685 157.827 89.344C157.948 89.2195 158.043 89.0706 158.108 88.906C158.173 88.7415 158.206 88.5648 158.205 88.3864C158.199 88.2067 158.159 88.0302 158.088 87.8669C158.016 87.7036 157.916 87.5568 157.791 87.4348C157.666 87.3128 157.52 87.2181 157.36 87.156C157.201 87.094 157.031 87.0658 156.862 87.0732C156.693 87.0676 156.526 87.0981 156.369 87.1628C156.212 87.2274 156.069 87.3249 155.948 87.4494C155.827 87.5739 155.732 87.7228 155.667 87.8874C155.602 88.0519 155.569 88.2286 155.57 88.407Z" fill="#263238"/>
<path d="M142.23 89.4876C142.237 89.6673 142.277 89.8438 142.348 90.0071C142.419 90.1704 142.52 90.3172 142.645 90.4392C142.769 90.5612 142.916 90.6559 143.075 90.7179C143.234 90.78 143.404 90.8082 143.574 90.8008C143.745 90.8065 143.915 90.775 144.074 90.7083C144.233 90.6416 144.378 90.541 144.499 90.4128C144.62 90.2846 144.715 90.1316 144.778 89.963C144.841 89.7945 144.871 89.614 144.866 89.4328C144.85 89.0711 144.701 88.7305 144.449 88.4856C144.197 88.2407 143.864 88.1116 143.522 88.1264C143.351 88.1197 143.181 88.1503 143.022 88.2163C142.862 88.2823 142.718 88.3822 142.597 88.5098C142.475 88.6375 142.38 88.7901 142.317 88.9583C142.254 89.1265 142.224 89.3067 142.23 89.4876Z" fill="#263238"/>
<path d="M139.426 86.4303C139.601 86.656 140.718 85.6779 142.236 85.6847C143.754 85.6916 144.878 86.6423 145.053 86.4098C145.137 86.3072 144.962 85.8968 144.478 85.4522C143.845 84.8941 143.047 84.5869 142.223 84.5835C141.399 84.5993 140.607 84.9241 139.988 85.5001C139.536 85.9105 139.342 86.3277 139.426 86.4303Z" fill="#263238"/>
<path d="M153.625 86.0608C153.832 86.266 154.917 85.1785 156.526 85.0143C158.134 84.8501 159.426 85.6436 159.581 85.4042C159.659 85.2947 159.439 84.9049 158.877 84.5287C158.135 84.0536 157.266 83.8494 156.403 83.9473C155.545 84.0391 154.74 84.4315 154.116 85.0622C153.658 85.5478 153.522 85.9719 153.625 86.0608Z" fill="#263238"/>
<path d="M149.336 96.9433C148.579 96.7507 147.802 96.6566 147.023 96.6629C146.668 96.6629 146.319 96.5945 146.248 96.3346C146.191 95.9446 146.25 95.5455 146.416 95.1923C146.7 94.2552 146.997 93.2634 147.307 92.2306C148.541 88.0103 149.407 84.5561 149.245 84.5014C149.084 84.4467 147.953 87.8325 146.726 92.0254C146.429 93.0651 146.151 94.0774 145.88 95.0076C145.68 95.4812 145.646 96.0145 145.783 96.5124C145.846 96.6451 145.937 96.7605 146.049 96.8495C146.161 96.9385 146.291 96.9988 146.429 97.0254C146.641 97.0723 146.858 97.0884 147.075 97.0733C147.831 97.1315 148.59 97.0879 149.336 96.9433Z" fill="#263238"/>
<path d="M149.407 114.618C154.198 114.373 158.831 112.727 162.792 109.864C162.792 109.864 159.924 117.491 149.665 117.155L149.407 114.618Z" fill="#EB996E"/>
<path d="M150.143 100.493C150.389 100.119 150.721 99.8172 151.108 99.6162C151.494 99.4152 151.923 99.3216 152.353 99.3441C152.665 99.3553 152.971 99.4318 153.255 99.5692C153.539 99.7065 153.794 99.902 154.006 100.144C154.209 100.381 154.338 100.678 154.376 100.995C154.414 101.311 154.36 101.633 154.22 101.916C154.009 102.198 153.724 102.406 153.4 102.516C153.077 102.626 152.73 102.631 152.404 102.532C151.727 102.325 151.094 101.979 150.544 101.512C150.377 101.407 150.232 101.268 150.117 101.102C150.064 101.021 150.036 100.924 150.036 100.825C150.036 100.726 150.064 100.629 150.117 100.548" fill="#4D61A3"/>
<path d="M153.535 97.7024C153.302 97.7024 153.393 99.3167 152.159 100.548C150.925 101.779 149.284 101.711 149.284 101.916C149.284 102.018 149.665 102.203 150.357 102.176C151.251 102.128 152.101 101.75 152.76 101.109C153.386 100.488 153.764 99.6357 153.813 98.7284C153.832 98.0718 153.638 97.6819 153.535 97.7024Z" fill="#263238"/>
<path d="M153.102 81.0266C153.27 81.4234 154.659 81.1361 156.332 81.2387C158.005 81.3413 159.355 81.7243 159.562 81.3481C159.646 81.1703 159.394 80.8009 158.832 80.4453C158.085 80.0151 157.256 79.7696 156.407 79.7269C155.558 79.6843 154.711 79.8457 153.929 80.199C153.309 80.5 153.025 80.8351 153.102 81.0266Z" fill="#263238"/>
<path d="M140.221 81.868C140.518 82.1895 141.603 81.7654 142.934 81.6559C144.265 81.5465 145.408 81.7243 145.647 81.3481C145.75 81.1703 145.55 80.842 145.04 80.5547C144.342 80.2048 143.566 80.0652 142.798 80.1511C142.029 80.2097 141.291 80.4939 140.666 80.9719C140.214 81.355 140.085 81.7107 140.221 81.868Z" fill="#263238"/>
<path d="M171.19 72.0867C170.06 70.7187 168.283 70.1783 166.603 69.7611C159.351 67.9732 151.924 67.103 144.478 67.1687C143.78 68.8924 144.904 70.9307 146.416 71.8815C147.928 72.8323 149.769 73.0306 151.493 73.4342C153.218 73.8378 155.04 74.5902 155.944 76.1702C156.907 77.887 156.59 80.1306 157.463 81.8953C158.974 84.9322 163.322 85.3153 164.814 88.3796C165.945 90.6847 164.963 93.4549 164.969 96.0541C164.97 97.3729 165.237 98.6762 165.752 99.8771C166.267 101.078 167.018 102.149 167.954 103.018C168.891 103.887 169.992 104.535 171.184 104.919C172.376 105.302 173.631 105.411 174.866 105.24C174.147 95.9925 173.432 86.7471 172.721 77.504C172.579 75.6161 172.379 73.5436 171.19 72.0867Z" fill="#263238"/>
<path d="M191.701 92.6682C190.157 91.5738 188.296 90.7051 187.502 88.9267C186.352 86.3412 187.98 82.8528 186.332 80.5888C184.834 78.5368 181.293 79.1592 179.872 77.032C178.761 75.3699 179.556 73.612 179.013 72.1072C178.47 70.6024 176.177 69.5148 174.691 69.9252L165.266 89.8365C164.976 96.0882 164.297 99.4945 166.003 102.874C166.939 104.727 168.076 106.499 168.587 108.523C169.097 110.548 168.936 112.956 167.508 114.413C174.653 113.947 180.764 109.043 186.39 104.344L192.34 99.3714C193 98.9088 193.539 98.2786 193.91 97.5383C194.666 95.7599 193.238 93.7626 191.701 92.6682Z" fill="#263238"/>
<path d="M186.345 102.484C186.112 102.601 185.867 102.691 185.615 102.751C184.887 102.942 184.133 102.997 183.386 102.915C182.198 102.794 181.06 102.346 180.085 101.615C178.791 100.615 177.875 99.1606 177.501 97.5111C177.269 96.5623 177.219 95.5739 177.353 94.6041C177.544 93.582 177.861 92.5908 178.296 91.656C178.762 90.6814 179.09 89.6398 179.271 88.5643C179.366 88.0141 179.343 87.4485 179.204 86.9089C179.065 86.3693 178.815 85.8692 178.47 85.4453C177.708 84.6313 176.481 84.5835 175.311 84.2757C174.678 84.1402 174.097 83.8066 173.645 83.3181C173.22 82.7819 172.961 82.1206 172.902 81.4234C172.734 80.0554 173.122 78.6874 173.186 77.4083C173.245 76.759 173.163 76.104 172.947 75.4931C172.706 74.8986 172.273 74.4139 171.726 74.1251C170.602 73.5027 169.284 73.5711 168.012 73.6463C166.721 73.7872 165.417 73.5826 164.22 73.0512C163.064 72.5123 162.07 71.649 161.345 70.5546C160.711 69.4879 160.241 68.3222 159.95 67.1004C159.675 65.9742 159.292 64.8808 158.806 63.8378C158.303 62.8927 157.616 62.0719 156.791 61.4301C155.42 60.3669 153.764 59.7938 152.065 59.7938C150.366 59.7938 148.711 60.3669 147.34 61.4301C146.388 62.1363 145.564 63.0165 144.904 64.0293C144.354 64.905 143.903 65.8462 143.561 66.8337C143.565 66.7638 143.578 66.6948 143.599 66.6285C143.638 66.4985 143.683 66.2933 143.774 66.0471C144.026 65.3036 144.36 64.5942 144.769 63.9335C145.417 62.873 146.243 61.946 147.204 61.1975C148.475 60.214 149.981 59.6286 151.552 59.508C153.483 59.3869 155.396 59.9632 156.978 61.1428C157.851 61.8102 158.578 62.6687 159.11 63.6599C159.612 64.7236 160.009 65.84 160.292 66.991C160.581 68.1683 161.038 69.2917 161.649 70.3221C162.336 71.3474 163.274 72.1559 164.362 72.6614C165.501 73.1523 166.738 73.3333 167.96 73.188C169.252 73.1196 170.628 73.0239 171.881 73.7147C172.517 74.047 173.019 74.6102 173.296 75.3016C173.538 75.9725 173.631 76.6933 173.567 77.4083C173.49 78.7763 173.115 80.0896 173.27 81.355C173.319 81.964 173.545 82.5421 173.916 83.0103C174.318 83.4344 174.827 83.7266 175.383 83.8516C175.945 84.0089 176.532 84.0842 177.114 84.2483C177.713 84.3876 178.267 84.6947 178.716 85.1375C179.098 85.6066 179.376 86.1602 179.531 86.7578C179.685 87.3554 179.711 87.982 179.607 88.5917C179.417 89.7038 179.073 90.7802 178.587 91.786C178.152 92.6967 177.834 93.6653 177.644 94.6656C177.509 95.5904 177.549 96.5342 177.76 97.4427C178.116 99.024 178.985 100.423 180.215 101.396C181.153 102.118 182.249 102.574 183.399 102.723C184.387 102.847 185.387 102.765 186.345 102.484Z" fill="#455A64"/>
<path d="M194.071 88.1813C194.214 88.3473 194.321 88.5431 194.388 88.7558C194.584 89.3766 194.563 90.0513 194.33 90.6574C194.167 91.0998 193.903 91.4924 193.561 91.7997C193.143 92.1593 192.636 92.3848 192.101 92.4495C191.453 92.5329 190.795 92.4258 190.2 92.1398C189.605 91.8539 189.096 91.4002 188.729 90.8284C188.3 90.1692 188.023 89.4124 187.921 88.619C187.835 87.7667 187.894 86.9048 188.096 86.0746C188.438 84.3714 189.252 82.6546 189.02 80.7394C188.994 80.2694 188.879 79.8098 188.68 79.3888C188.481 78.9678 188.203 78.5941 187.863 78.2906C187.059 77.7713 186.096 77.6022 185.176 77.8187C184.155 78.0533 183.103 78.095 182.069 77.9418C181.519 77.7916 181.027 77.4641 180.66 77.0047C180.31 76.5407 180.058 76.0016 179.924 75.4247C179.731 74.3154 179.67 73.1848 179.743 72.0594C179.758 71.0064 179.562 69.9621 179.168 68.9951C178.418 67.1536 177.031 65.6853 175.292 64.8911C173.632 64.1387 171.842 64.296 170.234 64.4328C168.713 64.661 167.167 64.6333 165.654 64.3507C164.411 64.057 163.237 63.4985 162.204 62.7091C161.426 62.1214 160.736 61.4136 160.156 60.6092C159.649 59.9367 159.258 59.175 159 58.3589C159.371 59.1107 159.804 59.8271 160.292 60.4998C161.666 62.3064 163.584 63.5595 165.725 64.0498C167.21 64.2938 168.723 64.2938 170.208 64.0498C171.817 63.8993 173.671 63.7146 175.447 64.4944C177.287 65.3152 178.762 66.8493 179.569 68.783C179.986 69.8036 180.196 70.9062 180.182 72.0184C180.11 73.1071 180.168 74.2012 180.357 75.2742C180.442 75.7852 180.66 76.2613 180.984 76.6499C181.309 77.0386 181.729 77.3247 182.198 77.4767C183.183 77.6157 184.184 77.5741 185.157 77.3536C186.178 77.1201 187.246 77.3215 188.128 77.9144C188.508 78.2537 188.818 78.6712 189.04 79.1416C189.262 79.612 189.392 80.1254 189.42 80.6504C189.51 81.6226 189.415 82.6039 189.142 83.5369C188.916 84.4398 188.638 85.2811 188.451 86.1156C188.247 86.9033 188.183 87.7245 188.264 88.537C188.352 89.2722 188.602 89.9751 188.994 90.589C189.328 91.1228 189.793 91.5501 190.34 91.8249C190.886 92.0997 191.493 92.2116 192.095 92.1485C192.589 92.0962 193.059 91.897 193.451 91.5739C193.778 91.2982 194.036 90.941 194.201 90.5342C194.437 89.9633 194.483 89.3238 194.33 88.7217C194.252 88.5369 194.166 88.3566 194.071 88.1813Z" fill="#263238"/>
<path d="M120.156 103.715C120.036 104.382 120.134 105.072 120.434 105.671C120.601 106.017 120.838 106.319 121.128 106.555C121.419 106.792 121.755 106.957 122.113 107.039C122.589 107.115 123.074 107.049 123.516 106.848C123.958 106.647 124.338 106.32 124.613 105.904C124.922 105.414 125.063 104.828 125.014 104.242C124.949 103.595 124.771 102.967 124.491 102.388C123.948 101.177 122.998 99.9119 122.895 98.2361C122.839 97.388 122.952 96.537 123.224 95.7373C123.497 94.9376 123.924 94.2069 124.478 93.5918C125.059 92.9413 125.752 92.4143 126.519 92.0391C127.306 91.6711 128.136 91.4158 128.987 91.2799C129.807 91.1471 130.614 90.9342 131.396 90.6437C132.128 90.3656 132.743 89.823 133.134 89.1116C133.467 88.3925 133.603 87.5895 133.528 86.7928C133.464 86.0111 133.299 85.2425 133.037 84.5083C132.553 83.0582 131.933 81.6628 131.823 80.2196C131.719 78.8912 131.991 77.5602 132.604 76.396C133.133 75.4666 133.824 74.6519 134.639 73.9952C135.231 73.4958 135.788 72.9517 136.306 72.3673C136.732 71.8586 137.056 71.2626 137.256 70.6162C137.256 70.6162 137.256 70.6641 137.256 70.753C137.239 70.8861 137.209 71.0168 137.165 71.1429C137.008 71.6313 136.764 72.0838 136.448 72.4767C135.944 73.0871 135.396 73.6544 134.807 74.173C134.029 74.8288 133.372 75.6311 132.869 76.5397C132.306 77.6545 132.064 78.9195 132.172 80.1785C132.288 81.5465 132.895 82.9145 133.405 84.3646C133.685 85.1328 133.861 85.9386 133.929 86.7586C134.015 87.6353 133.865 88.5199 133.496 89.3099C133.062 90.1114 132.376 90.7262 131.558 91.0473C130.75 91.3555 129.918 91.5845 129.071 91.7313C128.254 91.8617 127.457 92.1055 126.7 92.4563C125.972 92.8035 125.314 93.2959 124.762 93.9064C124.243 94.4776 123.842 95.1569 123.584 95.9011C123.326 96.6452 123.216 97.4381 123.263 98.2293C123.341 99.7615 124.226 100.965 124.788 102.251C125.081 102.874 125.261 103.549 125.318 104.242C125.37 104.902 125.201 105.561 124.84 106.102C124.528 106.558 124.102 106.913 123.61 107.124C123.117 107.336 122.579 107.397 122.055 107.299C121.43 107.13 120.882 106.733 120.507 106.177C120.132 105.621 119.955 104.943 120.007 104.262C120.024 104.072 120.075 103.886 120.156 103.715Z" fill="#263238"/>
<path d="M122.514 145.425C122.514 145.425 123.599 136.225 127.785 131.629C131.971 127.032 149.491 121.273 149.491 121.273C149.491 121.273 150.214 127.833 154.413 129.413C158.864 131.095 163.89 130.466 167.146 126.458C169.115 123.889 170.499 120.874 171.19 117.648C171.19 117.648 192.114 119.7 195.525 125.76C198.936 131.82 203.348 155.371 203.348 155.371L183.787 159.769L186.449 200.303H134.497L135.511 162.258L121.364 164.399L122.514 145.425Z" fill="#455A64"/>
<path d="M179.93 161.068C179.869 160.77 179.845 160.464 179.859 160.159C179.859 159.57 179.859 158.715 179.859 157.669C179.859 155.562 179.892 152.662 179.956 149.461C180.021 146.26 180.098 143.353 180.182 141.253C180.221 140.199 180.26 139.351 180.299 138.763C180.294 138.456 180.331 138.149 180.408 137.853C180.465 138.153 180.487 138.458 180.473 138.763C180.473 139.351 180.473 140.206 180.473 141.253C180.473 143.359 180.441 146.26 180.376 149.461C180.311 152.662 180.234 155.569 180.15 157.669C180.111 158.715 180.066 159.563 180.034 160.152C180.041 160.461 180.006 160.77 179.93 161.068Z" fill="#263238"/>
<path d="M130.692 144.379C130.815 144.344 132.036 148.483 133.418 153.565C134.801 158.647 135.834 162.84 135.712 162.874C135.589 162.908 134.374 158.77 132.986 153.695C131.597 148.619 130.576 144.42 130.692 144.379Z" fill="#263238"/>
<path d="M193.367 124.269C193.367 124.351 192.437 124.536 191.009 125.11C187.265 126.628 184.148 129.499 182.211 133.216C181.474 134.632 181.171 135.596 181.093 135.569C181.109 135.334 181.159 135.103 181.242 134.885C181.423 134.262 181.652 133.656 181.927 133.072C182.836 131.137 184.097 129.411 185.638 127.993C187.179 126.575 188.969 125.493 190.906 124.809C191.489 124.6 192.088 124.442 192.695 124.338C192.913 124.271 193.141 124.248 193.367 124.269Z" fill="#263238"/>
<path d="M127.475 133.482C127.592 133.482 128.005 134.734 128.393 136.342C128.78 137.949 128.993 139.283 128.871 139.317C128.748 139.351 128.341 138.065 127.953 136.458C127.566 134.85 127.353 133.517 127.475 133.482Z" fill="#263238"/>
<path d="M199.898 156.116C199.898 156.116 194.039 187.621 193.367 190.316C192.695 193.011 191.617 200.268 184.517 201.773C174.937 203.825 137.32 202.382 137.32 202.382L144.426 192.874L177.34 183.1L181.862 160.179L199.898 156.116Z" fill="#FFBE9D"/>
<path d="M143.8 187.553C143.93 187.776 144.024 188.021 144.077 188.278C144.27 188.965 144.396 189.67 144.452 190.384C144.65 192.755 144.183 195.134 143.108 197.224C142.537 198.389 141.813 199.462 140.957 200.412C140.247 201.183 139.39 201.787 138.444 202.183C137.809 202.437 137.144 202.596 136.468 202.655C136.221 202.698 135.971 202.698 135.725 202.655C136.605 202.483 137.47 202.229 138.309 201.896C139.19 201.477 139.985 200.877 140.647 200.131C141.453 199.2 142.143 198.163 142.701 197.047C143.736 195.023 144.228 192.738 144.123 190.439C144.058 188.633 143.716 187.58 143.8 187.553Z" fill="#EB996E"/>
<path d="M112.301 150.268C112.301 150.268 117.604 169.167 119.801 177.334C122.139 186.007 127.249 205.706 138.141 202.211C146.429 199.543 143.993 188.175 143.993 188.175L135.511 162.224L128.916 163.394L122.514 145.89L112.301 150.268Z" fill="#FFBE9D"/>
<path d="M141.093 188.996C141.389 187.588 141.389 186.129 141.093 184.721C140.743 183.206 140.143 181.769 139.323 180.473C138.289 178.892 137.139 177.399 135.886 176.007C134.627 174.59 133.474 173.071 132.437 171.465C131.607 170.14 130.884 168.745 130.272 167.293C129.859 166.317 129.505 165.314 129.213 164.29C129.079 163.921 128.992 163.534 128.955 163.141C129.121 163.491 129.262 163.855 129.374 164.228C129.633 164.912 130.02 165.938 130.563 167.149C131.204 168.564 131.947 169.925 132.785 171.219C133.828 172.794 134.976 174.286 136.222 175.685C137.491 177.096 138.645 178.617 139.672 180.234C140.507 181.589 141.097 183.096 141.409 184.68C141.611 185.746 141.611 186.843 141.409 187.909C141.358 188.195 141.282 188.477 141.183 188.75C141.165 188.836 141.134 188.919 141.093 188.996Z" fill="#EB996E"/>
<path d="M122.514 145.89C122.514 145.89 122.553 138.366 121.926 136.218L116.887 124.303C116.887 124.303 115.595 123.462 114.949 125.835C114.303 128.209 116.293 130.658 116.293 130.658L116.448 133.777L114.432 132.012L110.511 124.228C110.511 124.228 107.805 118.558 107.107 119.44C106.409 120.322 106.635 122.176 107.798 124.604L110.447 130.158C110.447 130.158 110.847 131.143 109.458 129.714C108.069 128.284 105.053 121.362 104.426 120.493C103.799 119.625 102.947 117.073 101.596 117.668C100.246 118.263 101.978 121.287 101.978 121.287L106.299 131.547C106.299 131.547 103.793 127.662 103.341 127.005C102.888 126.348 101.842 124.125 101.022 122.99C100.201 121.854 99.3032 121.417 98.7089 121.69C98.4188 121.801 98.1796 122.025 98.0402 122.316C97.9009 122.607 97.872 122.944 97.9595 123.257L102.578 131.738C102.578 131.738 104.885 135.548 104.885 135.842C104.885 136.136 102.869 134.584 102.869 134.584L100.931 131.971C100.931 131.971 98.8381 128.058 97.7399 128.27C96.6417 128.482 96.8355 129.351 96.8355 129.351L100.711 136.478L106.357 144.167L112.391 150.514L115.88 149.324L122.514 145.89Z" fill="#FFBE9D"/>
<path d="M111.409 144.618C111.585 143.847 111.701 143.063 111.758 142.272C111.984 140.863 112.443 138.749 114.077 137.388C114.738 136.805 115.562 136.47 116.422 136.437H116.713V136.109C116.622 134.645 116.674 133.25 116.622 132.327C116.664 131.818 116.598 131.306 116.429 130.829C116.339 131.32 116.293 131.819 116.293 132.32C116.194 133.61 116.157 134.904 116.183 136.198L116.448 135.87C115.458 135.867 114.499 136.235 113.741 136.909C112.913 137.617 112.282 138.548 111.913 139.604C111.623 140.446 111.441 141.325 111.37 142.217C111.258 143.014 111.272 143.825 111.409 144.618Z" fill="#EB996E"/>
<path d="M204.104 211.787H120.634C118.9 211.787 117.495 213.275 117.495 215.111V239.208C117.495 241.044 118.9 242.533 120.634 242.533H204.104C205.838 242.533 207.243 241.044 207.243 239.208V215.111C207.243 213.275 205.838 211.787 204.104 211.787Z" fill="white"/>
<path d="M204.136 242.539C204.136 242.539 204.343 242.539 204.73 242.457C205.304 242.332 205.832 242.038 206.255 241.609C206.601 241.26 206.868 240.833 207.036 240.359C207.204 239.885 207.268 239.377 207.224 238.873C207.224 237.669 207.224 236.288 207.224 234.769C207.224 231.657 207.224 227.854 207.224 223.435C207.224 221.224 207.224 218.866 207.224 216.363C207.247 215.735 207.227 215.107 207.166 214.482C207.045 213.862 206.755 213.294 206.332 212.847C205.897 212.386 205.337 212.078 204.73 211.965C204.086 211.906 203.439 211.89 202.792 211.917L120.712 211.965C119.996 211.964 119.303 212.236 118.762 212.733C118.221 213.229 117.867 213.916 117.766 214.666C117.708 215.152 117.766 215.699 117.734 216.219V237.656C117.734 238.148 117.734 238.647 117.734 239.14C117.725 239.611 117.816 240.078 117.998 240.508C118.179 240.933 118.447 241.311 118.782 241.614C119.117 241.917 119.511 242.137 119.936 242.259C120.36 242.361 120.795 242.4 121.228 242.375H133.205H170.105L194.982 242.437H201.746L194.982 242.471L170.105 242.526L133.205 242.567H121.17C120.697 242.594 120.223 242.55 119.762 242.437C119.056 242.232 118.435 241.785 117.995 241.166C117.556 240.547 117.323 239.791 117.333 239.017V234.543C117.333 230.544 117.333 226.475 117.333 222.334V216.096C117.32 215.562 117.333 215.028 117.372 214.495C117.443 213.943 117.64 213.417 117.947 212.963C118.255 212.509 118.66 212.138 119.129 211.881C119.599 211.624 120.119 211.489 120.647 211.486L202.728 211.541C203.374 211.518 204.022 211.539 204.666 211.602C205.307 211.729 205.897 212.058 206.358 212.546C206.82 213.034 207.13 213.659 207.25 214.338C207.317 214.976 207.336 215.619 207.308 216.26C207.308 218.764 207.308 221.121 207.308 223.333C207.308 227.751 207.308 231.541 207.308 234.667C207.308 236.217 207.308 237.585 207.308 238.771C207.335 239.33 207.244 239.888 207.043 240.405C206.864 240.83 206.604 241.212 206.281 241.527C205.846 241.957 205.303 242.245 204.717 242.355C204.57 242.383 204.421 242.399 204.272 242.403L204.136 242.539Z" fill="#263238"/>
<path d="M126.448 224.714C126.446 224.367 126.511 224.022 126.64 223.702C126.769 223.382 126.958 223.094 127.197 222.855C127.436 222.616 127.719 222.432 128.028 222.314C128.337 222.197 128.666 222.147 128.993 222.17C129.37 222.151 129.745 222.225 130.09 222.385C130.435 222.545 130.741 222.788 130.983 223.093L130.15 223.894C130.023 223.714 129.858 223.568 129.669 223.468C129.479 223.369 129.27 223.317 129.058 223.319C128.708 223.319 128.372 223.466 128.124 223.729C127.876 223.991 127.737 224.347 127.737 224.718C127.737 225.089 127.876 225.445 128.124 225.707C128.372 225.969 128.708 226.117 129.058 226.117C129.269 226.117 129.478 226.065 129.667 225.965C129.857 225.865 130.022 225.721 130.15 225.542L130.983 226.335C130.741 226.641 130.435 226.883 130.09 227.044C129.745 227.204 129.37 227.277 128.993 227.259C128.666 227.281 128.337 227.232 128.028 227.114C127.719 226.996 127.436 226.812 127.197 226.574C126.958 226.335 126.769 226.046 126.64 225.727C126.511 225.407 126.446 225.062 126.448 224.714Z" fill="#263238"/>
<path d="M131.468 224.981V222.245H132.76V224.92C132.76 225.761 133.089 226.096 133.638 226.096C134.187 226.096 134.51 225.761 134.51 224.92V222.3H135.802V225.036C135.772 225.625 135.53 226.179 135.125 226.584C134.721 226.989 134.185 227.215 133.628 227.215C133.072 227.215 132.536 226.989 132.131 226.584C131.727 226.179 131.485 225.625 131.455 225.036L131.468 224.981Z" fill="#263238"/>
<path d="M138.722 225.863H138.005V227.163H136.713V222.3H138.825C140.117 222.3 140.88 222.984 140.88 224.112C140.892 224.436 140.813 224.757 140.651 225.032C140.49 225.308 140.255 225.526 139.975 225.658L140.97 227.197H139.536L138.722 225.863ZM138.722 223.36H137.992V224.79H138.722C139.258 224.79 139.53 224.53 139.53 224.106C139.53 223.681 139.271 223.36 138.735 223.36H138.722Z" fill="#263238"/>
<path d="M143.606 225.863H142.889V227.163H141.597V222.3H143.709C145.001 222.3 145.763 222.984 145.763 224.112C145.776 224.436 145.697 224.757 145.535 225.032C145.374 225.308 145.139 225.526 144.859 225.658L145.854 227.197H144.446L143.606 225.863ZM143.606 223.36H142.876V224.79H143.606C144.149 224.79 144.42 224.53 144.42 224.106C144.42 223.681 144.161 223.36 143.619 223.36H143.606Z" fill="#263238"/>
<path d="M150.182 226.096V227.163H146.468V222.3H150.098V223.374H147.766V224.194H149.82V225.234H147.766V226.13L150.182 226.096Z" fill="#263238"/>
<path d="M155.305 222.3V227.197H154.226L152.191 224.591V227.197H150.899V222.3H151.978L154.019 224.913V222.3H155.305Z" fill="#263238"/>
<path d="M157.211 223.367H155.796V222.3H159.937V223.401H158.522V227.197H157.23L157.211 223.367Z" fill="#263238"/>
<path d="M162.34 222.3H163.632V226.103H165.835V227.197H162.34V222.3Z" fill="#263238"/>
<path d="M166.061 224.714C166.024 224.167 166.145 223.62 166.406 223.146C166.667 222.671 167.056 222.291 167.524 222.054C167.992 221.818 168.516 221.735 169.029 221.818C169.541 221.901 170.018 222.145 170.398 222.519C170.778 222.893 171.043 223.379 171.158 223.915C171.273 224.45 171.234 225.01 171.044 225.521C170.855 226.032 170.525 226.471 170.097 226.781C169.669 227.091 169.163 227.258 168.645 227.259C168.315 227.283 167.984 227.236 167.672 227.119C167.36 227.002 167.074 226.819 166.831 226.58C166.589 226.342 166.396 226.053 166.263 225.732C166.131 225.411 166.062 225.065 166.061 224.714ZM169.879 224.714C169.865 224.456 169.78 224.207 169.634 223.999C169.488 223.791 169.288 223.632 169.058 223.543C168.828 223.454 168.578 223.439 168.34 223.498C168.102 223.557 167.885 223.689 167.717 223.878C167.549 224.066 167.436 224.302 167.394 224.557C167.351 224.812 167.379 225.075 167.476 225.313C167.572 225.551 167.733 225.754 167.937 225.897C168.141 226.04 168.381 226.116 168.625 226.117C168.798 226.122 168.97 226.089 169.13 226.019C169.29 225.95 169.435 225.846 169.555 225.714C169.675 225.582 169.767 225.425 169.826 225.253C169.885 225.08 169.91 224.897 169.898 224.714H169.879Z" fill="#263238"/>
<path d="M171.649 224.714C171.645 224.367 171.71 224.022 171.838 223.703C171.966 223.383 172.155 223.094 172.394 222.856C172.632 222.617 172.914 222.432 173.223 222.314C173.532 222.197 173.86 222.147 174.188 222.17C174.564 222.151 174.939 222.225 175.284 222.385C175.63 222.545 175.935 222.788 176.177 223.093L175.344 223.894C175.217 223.714 175.052 223.568 174.863 223.468C174.673 223.369 174.464 223.317 174.252 223.319C173.902 223.319 173.566 223.466 173.318 223.729C173.07 223.991 172.931 224.347 172.931 224.718C172.931 225.089 173.07 225.445 173.318 225.707C173.566 225.969 173.902 226.117 174.252 226.117C174.464 226.117 174.672 226.065 174.862 225.965C175.051 225.865 175.216 225.721 175.344 225.542L176.177 226.335C175.935 226.641 175.63 226.883 175.284 227.044C174.939 227.204 174.564 227.277 174.188 227.259C173.86 227.281 173.532 227.232 173.223 227.114C172.914 226.996 172.632 226.812 172.394 226.573C172.155 226.334 171.966 226.046 171.838 225.726C171.71 225.406 171.645 225.062 171.649 224.714Z" fill="#263238"/>
<path d="M179.775 226.212H177.837L177.476 227.163H176.138L178.18 222.266H179.472L181.52 227.163H180.157L179.775 226.212ZM179.388 225.193L178.8 223.627L178.206 225.193H179.388Z" fill="#263238"/>
<path d="M182.618 223.367H181.197V222.3H185.337V223.401H183.929V227.197H182.637L182.618 223.367Z" fill="#263238"/>
<path d="M185.828 222.3H187.12V227.197H185.828V222.3Z" fill="#263238"/>
<path d="M187.831 224.714C187.795 224.167 187.915 223.62 188.176 223.146C188.437 222.671 188.827 222.291 189.294 222.054C189.762 221.818 190.287 221.735 190.799 221.818C191.312 221.901 191.789 222.145 192.168 222.519C192.548 222.893 192.813 223.379 192.928 223.915C193.043 224.45 193.004 225.01 192.815 225.521C192.626 226.032 192.296 226.471 191.868 226.781C191.44 227.091 190.934 227.258 190.415 227.259C190.085 227.283 189.754 227.236 189.442 227.119C189.13 227.002 188.844 226.819 188.602 226.58C188.359 226.342 188.166 226.053 188.033 225.732C187.901 225.411 187.832 225.065 187.831 224.714ZM191.649 224.714C191.635 224.456 191.55 224.207 191.404 223.999C191.258 223.791 191.058 223.632 190.828 223.543C190.598 223.454 190.349 223.439 190.11 223.498C189.872 223.557 189.656 223.689 189.487 223.878C189.319 224.066 189.207 224.302 189.164 224.557C189.121 224.812 189.15 225.075 189.246 225.313C189.343 225.551 189.503 225.754 189.707 225.897C189.912 226.04 190.151 226.116 190.396 226.117C190.567 226.119 190.737 226.084 190.895 226.013C191.052 225.942 191.195 225.838 191.312 225.706C191.43 225.574 191.521 225.418 191.579 225.248C191.637 225.077 191.661 224.895 191.649 224.714Z" fill="#263238"/>
<path d="M198.051 222.3V227.197H196.972L194.93 224.591V227.197H193.638V222.3H194.717L196.759 224.913V222.3H198.051Z" fill="#263238"/>
<path d="M136.545 232.881C136.573 232.379 136.739 231.897 137.024 231.495C137.309 231.093 137.7 230.789 138.147 230.62C138.594 230.452 139.078 230.426 139.539 230.548C140 230.669 140.417 230.931 140.738 231.301L140.092 231.937C139.957 231.765 139.788 231.627 139.597 231.533C139.406 231.438 139.198 231.389 138.987 231.39C138.613 231.39 138.255 231.547 137.991 231.827C137.727 232.107 137.579 232.486 137.579 232.881C137.579 233.277 137.727 233.656 137.991 233.936C138.255 234.215 138.613 234.372 138.987 234.372C139.199 234.375 139.408 234.326 139.6 234.23C139.791 234.134 139.959 233.993 140.092 233.818L140.738 234.455C140.418 234.828 140.002 235.093 139.541 235.216C139.08 235.339 138.594 235.315 138.146 235.147C137.698 234.979 137.307 234.674 137.022 234.271C136.737 233.868 136.571 233.384 136.545 232.881Z" fill="#E0E0E0"/>
<path d="M141.416 230.556H142.437V235.207H141.416V230.556Z" fill="#E0E0E0"/>
<path d="M144.388 231.431H142.979V230.556H146.81V231.431H145.402V235.207H144.388V231.431Z" fill="#E0E0E0"/>
<path d="M149.381 233.559V235.207H148.367V233.545L146.642 230.556H147.721L148.89 232.608L150.066 230.556H151.067L149.381 233.559Z" fill="#E0E0E0"/>
<path d="M152.191 234.612C152.185 234.851 152.125 235.086 152.017 235.296L151.662 236.254H151.016L151.287 235.193C151.182 235.149 151.094 235.071 151.033 234.97C150.973 234.87 150.944 234.751 150.951 234.632C150.951 234.462 151.015 234.298 151.129 234.178C151.243 234.057 151.397 233.99 151.558 233.99C151.719 233.99 151.874 234.057 151.988 234.178C152.101 234.298 152.165 234.462 152.165 234.632L152.191 234.612Z" fill="#E0E0E0"/>
<path d="M154.394 232.881C154.423 232.38 154.591 231.898 154.877 231.497C155.163 231.095 155.553 230.791 156.001 230.623C156.448 230.455 156.932 230.429 157.393 230.55C157.854 230.67 158.271 230.932 158.593 231.301L157.947 231.937C157.813 231.765 157.644 231.627 157.453 231.532C157.262 231.437 157.053 231.389 156.842 231.39C156.469 231.39 156.111 231.547 155.847 231.827C155.582 232.107 155.434 232.486 155.434 232.881C155.434 233.277 155.582 233.656 155.847 233.936C156.111 234.215 156.469 234.372 156.842 234.372C157.054 234.376 157.264 234.328 157.456 234.232C157.647 234.136 157.815 233.994 157.947 233.818L158.593 234.455C158.273 234.827 157.856 235.091 157.395 235.214C156.934 235.337 156.448 235.313 156 235.145C155.552 234.977 155.16 234.672 154.874 234.27C154.589 233.867 154.422 233.384 154.394 232.881Z" fill="#E0E0E0"/>
<path d="M158.916 232.881C158.889 232.371 159.007 231.865 159.255 231.426C159.503 230.988 159.87 230.639 160.307 230.424C160.745 230.209 161.233 230.138 161.709 230.22C162.186 230.302 162.627 230.534 162.978 230.885C163.328 231.236 163.571 231.69 163.675 232.189C163.779 232.688 163.739 233.208 163.56 233.683C163.381 234.157 163.072 234.564 162.673 234.851C162.273 235.137 161.802 235.29 161.319 235.289C161.01 235.308 160.7 235.259 160.409 235.147C160.118 235.034 159.852 234.86 159.627 234.634C159.402 234.409 159.223 234.137 159.101 233.836C158.978 233.534 158.916 233.21 158.916 232.881ZM162.695 232.881C162.689 232.595 162.603 232.317 162.448 232.082C162.293 231.847 162.076 231.665 161.824 231.56C161.572 231.455 161.296 231.431 161.031 231.491C160.767 231.551 160.525 231.692 160.335 231.897C160.146 232.103 160.018 232.362 159.968 232.644C159.917 232.925 159.946 233.217 160.051 233.481C160.156 233.745 160.333 233.971 160.558 234.129C160.784 234.288 161.048 234.373 161.319 234.373C161.505 234.379 161.69 234.345 161.863 234.273C162.036 234.2 162.192 234.09 162.323 233.95C162.453 233.81 162.555 233.642 162.621 233.458C162.688 233.275 162.717 233.078 162.708 232.881H162.695Z" fill="#E0E0E0"/>
<path d="M164.465 233.162V230.556H165.479V233.121C165.479 234.003 165.841 234.373 166.461 234.373C167.081 234.373 167.437 234.003 167.437 233.121V230.556H168.444V233.162C168.444 233.721 168.235 234.257 167.862 234.652C167.489 235.047 166.982 235.269 166.455 235.269C165.927 235.269 165.421 235.047 165.048 234.652C164.675 234.257 164.465 233.721 164.465 233.162Z" fill="#E0E0E0"/>
<path d="M173.477 230.556V235.207H172.644L170.454 232.382V235.207H169.446V230.556H170.286L172.482 233.381V230.556H173.477Z" fill="#E0E0E0"/>
<path d="M175.428 231.431H174.02V230.556H177.85V231.431H176.442V235.207H175.428V231.431Z" fill="#E0E0E0"/>
<path d="M181.196 235.207L180.35 233.928H179.414V235.221H178.393V230.57H180.331C181.5 230.57 182.237 231.213 182.237 232.259C182.249 232.573 182.169 232.884 182.007 233.148C181.844 233.411 181.609 233.615 181.332 233.73L182.321 235.221L181.196 235.207ZM180.234 231.431H179.407V233.053H180.234C180.88 233.053 181.171 232.752 181.171 232.245C181.171 231.739 180.88 231.431 180.234 231.431Z" fill="#E0E0E0"/>
<path d="M185.053 233.559V235.207H184.039V233.545L182.333 230.556H183.412L184.588 232.608L185.764 230.556H186.765L185.053 233.559Z" fill="#E0E0E0"/>
</svg>
