<svg width="24" height="24" viewBox="0 0 24 24" fill="none" xmlns="http://www.w3.org/2000/svg">
<path opacity="0.4" d="M19.9926 18.9531H14.2983C13.7428 18.9531 13.2909 19.4121 13.2909 19.9765C13.2909 20.5419 13.7428 20.9999 14.2983 20.9999H19.9926C20.5482 20.9999 21 20.5419 21 19.9765C21 19.4121 20.5482 18.9531 19.9926 18.9531Z" fill="url(#paint0_linear_575_488)"/>
<path d="M10.309 6.9041L15.7049 11.2642C15.835 11.3685 15.8573 11.5598 15.7557 11.6931L9.35874 20.0284C8.95662 20.5434 8.36402 20.8347 7.72908 20.8454L4.23696 20.8884C4.05071 20.8906 3.88775 20.7616 3.84542 20.5767L3.05175 17.126C2.91419 16.4918 3.05175 15.836 3.45388 15.3308L9.88256 6.95569C9.98627 6.82132 10.1778 6.79767 10.309 6.9041Z" fill="url(#paint1_linear_575_488)"/>
<path opacity="0.4" d="M18.1205 8.66544L17.0803 9.96401C16.9755 10.0962 16.7872 10.1177 16.657 10.0124C15.3924 8.98901 12.1543 6.36285 11.2559 5.63509C11.1247 5.52759 11.1067 5.33625 11.2125 5.20295L12.2157 3.95706C13.1257 2.78534 14.7131 2.67784 15.9935 3.69906L17.4644 4.87078C18.0676 5.34377 18.4698 5.96726 18.6073 6.62299C18.7661 7.3443 18.5967 8.0527 18.1205 8.66544Z" fill="url(#paint2_linear_575_488)"/>
<defs>
<linearGradient id="paint0_linear_575_488" x1="13.2909" y1="18.8274" x2="20.0889" y2="22.7946" gradientUnits="userSpaceOnUse">
<stop stop-color="#4D61A3"/>
<stop offset="1" stop-color="#3E35F7"/>
</linearGradient>
<linearGradient id="paint1_linear_575_488" x1="3" y1="5.97462" x2="17.8571" y2="8.07473" gradientUnits="userSpaceOnUse">
<stop stop-color="#4D61A3"/>
<stop offset="1" stop-color="#3E35F7"/>
</linearGradient>
<linearGradient id="paint2_linear_575_488" x1="11.1438" y1="2.56531" x2="19.8004" y2="3.99031" gradientUnits="userSpaceOnUse">
<stop stop-color="#4D61A3"/>
<stop offset="1" stop-color="#3E35F7"/>
</linearGradient>
</defs>
</svg>
