<svg width="40" height="40" viewBox="0 0 40 40" fill="none" xmlns="http://www.w3.org/2000/svg">
<path d="M33.3335 6.66675H6.66683C4.8335 6.66675 3.35016 8.16675 3.35016 10.0001L3.3335 30.0001C3.3335 31.8334 4.8335 33.3334 6.66683 33.3334H33.3335C35.1668 33.3334 36.6668 31.8334 36.6668 30.0001V10.0001C36.6668 8.16675 35.1668 6.66675 33.3335 6.66675ZM32.6668 13.7501L20.8835 21.1167C20.3502 21.4501 19.6502 21.4501 19.1168 21.1167L7.3335 13.7501C7.16638 13.6563 7.02003 13.5295 6.90331 13.3775C6.78659 13.2255 6.70193 13.0514 6.65446 12.8657C6.60698 12.68 6.59767 12.4866 6.62709 12.2973C6.65651 12.1079 6.72406 11.9264 6.82563 11.7639C6.92721 11.6014 7.0607 11.4612 7.21804 11.3517C7.37538 11.2423 7.55328 11.1659 7.74099 11.1272C7.9287 11.0886 8.1223 11.0884 8.31009 11.1267C8.49787 11.165 8.67594 11.241 8.8335 11.3501L20.0002 18.3334L31.1668 11.3501C31.3244 11.241 31.5025 11.165 31.6902 11.1267C31.878 11.0884 32.0716 11.0886 32.2593 11.1272C32.447 11.1659 32.625 11.2423 32.7823 11.3517C32.9396 11.4612 33.0731 11.6014 33.1747 11.7639C33.2763 11.9264 33.3438 12.1079 33.3732 12.2973C33.4027 12.4866 33.3934 12.68 33.3459 12.8657C33.2984 13.0514 33.2137 13.2255 33.097 13.3775C32.9803 13.5295 32.834 13.6563 32.6668 13.7501Z" fill="url(#paint0_linear_515_11664)"/>
<defs>
<linearGradient id="paint0_linear_515_11664" x1="3.3335" y1="5.02932" x2="41.3129" y2="12.3848" gradientUnits="userSpaceOnUse">
<stop stop-color="#4D61A3"/>
<stop offset="1" stop-color="#3E35F7"/>
</linearGradient>
</defs>
</svg>
