<svg width="16" height="21" viewBox="0 0 16 21" fill="none" xmlns="http://www.w3.org/2000/svg">
<path d="M7.99616 0C3.59207 0 0 3.59207 0 7.99616C0 9.74298 0.553547 11.4037 1.59928 12.7938L7.50406 20.749C7.59007 20.872 7.82389 20.995 7.99616 20.995C8.18073 20.995 8.40222 20.8597 8.48827 20.7489C8.51275 20.712 14.4546 12.7077 14.5038 12.6338C14.5161 12.6338 14.5161 12.6338 14.5161 12.6216C15.4757 11.2684 15.9923 9.66915 15.9923 7.99616C15.9923 3.59211 12.4003 0 7.99616 0ZM7.99616 12.3018C5.62201 12.3018 3.69054 10.3704 3.69054 7.99616C3.69054 5.62193 5.62201 3.69054 7.99616 3.69054C10.3703 3.69054 12.3018 5.62193 12.3018 7.99616C12.3018 10.3704 10.3703 12.3018 7.99616 12.3018Z" fill="url(#paint0_linear_571_293)"/>
<defs>
<linearGradient id="paint0_linear_571_293" x1="-2.26779e-08" y1="-1.28917" x2="18.6451" y2="0.91127" gradientUnits="userSpaceOnUse">
<stop stop-color="#4D61A3"/>
<stop offset="1" stop-color="#3E35F7"/>
</linearGradient>
</defs>
</svg>
