<svg width="16" height="20" viewBox="0 0 16 20" fill="none" xmlns="http://www.w3.org/2000/svg">
<path d="M7.997 13.1748C3.684 13.1748 0 13.8548 0 16.5748C0 19.2958 3.661 19.9998 7.997 19.9998C12.31 19.9998 15.994 19.3208 15.994 16.5998C15.994 13.8788 12.334 13.1748 7.997 13.1748Z" fill="url(#paint0_linear_571_295)"/>
<path opacity="0.4" d="M7.99696 10.584C10.935 10.584 13.289 8.229 13.289 5.292C13.289 2.355 10.935 0 7.99696 0C5.05996 0 2.70496 2.355 2.70496 5.292C2.70496 8.229 5.05996 10.584 7.99696 10.584Z" fill="url(#paint1_linear_571_295)"/>
<defs>
<linearGradient id="paint0_linear_571_295" x1="8.5" y1="11.1273" x2="7.78033" y2="22.5506" gradientUnits="userSpaceOnUse">
<stop stop-color="#637BCA"/>
<stop offset="0.492523" stop-color="#3E35F7"/>
</linearGradient>
<linearGradient id="paint1_linear_571_295" x1="8.32982" y1="-3.17522" x2="5.76005" y2="14.2307" gradientUnits="userSpaceOnUse">
<stop stop-color="#637BCA"/>
<stop offset="0.492523" stop-color="#3E35F7"/>
</linearGradient>
</defs>
</svg>
