<svg width="40" height="40" viewBox="0 0 40 40" fill="none" xmlns="http://www.w3.org/2000/svg">
<path d="M31.7835 8.21662C29.0489 5.46412 25.4396 3.75198 21.5779 3.37536C17.7162 2.99874 13.8441 3.98125 10.6292 6.15351C7.41423 8.32576 5.05792 11.5516 3.96647 15.275C2.87502 18.9983 3.11682 22.9858 4.6502 26.55C4.81001 26.8812 4.86245 27.2541 4.8002 27.6166L3.33353 34.6666C3.27702 34.9369 3.28856 35.217 3.36711 35.4818C3.44566 35.7465 3.58875 35.9875 3.78353 36.1833C3.9432 36.3418 4.13332 36.4663 4.34242 36.5494C4.55152 36.6325 4.77527 36.6724 5.0002 36.6666H5.33353L12.4669 35.2333C12.8294 35.1897 13.1971 35.2414 13.5335 35.3833C17.0977 36.9167 21.0852 37.1585 24.8085 36.067C28.5318 34.9756 31.7577 32.6192 33.93 29.4043C36.1022 26.1894 37.0847 22.3173 36.7081 18.4556C36.3315 14.5939 34.6194 10.9846 31.8669 8.24996L31.7835 8.21662ZM13.3335 21.6666C13.0039 21.6666 12.6817 21.5689 12.4076 21.3857C12.1335 21.2026 11.9199 20.9423 11.7937 20.6378C11.6676 20.3332 11.6346 19.9981 11.6989 19.6748C11.7632 19.3515 11.9219 19.0545 12.155 18.8214C12.3881 18.5884 12.6851 18.4296 13.0084 18.3653C13.3317 18.301 13.6668 18.334 13.9713 18.4602C14.2759 18.5863 14.5362 18.7999 14.7193 19.074C14.9024 19.3481 15.0002 19.6703 15.0002 20C15.0002 20.442 14.8246 20.8659 14.512 21.1785C14.1995 21.491 13.7756 21.6666 13.3335 21.6666ZM20.0002 21.6666C19.6706 21.6666 19.3483 21.5689 19.0742 21.3857C18.8002 21.2026 18.5865 20.9423 18.4604 20.6378C18.3342 20.3332 18.3012 19.9981 18.3656 19.6748C18.4299 19.3515 18.5886 19.0545 18.8217 18.8214C19.0548 18.5884 19.3517 18.4296 19.675 18.3653C19.9983 18.301 20.3335 18.334 20.638 18.4602C20.9425 18.5863 21.2028 18.7999 21.386 19.074C21.5691 19.3481 21.6669 19.6703 21.6669 20C21.6669 20.442 21.4913 20.8659 21.1787 21.1785C20.8661 21.491 20.4422 21.6666 20.0002 21.6666ZM26.6669 21.6666C26.3372 21.6666 26.015 21.5689 25.7409 21.3857C25.4668 21.2026 25.2532 20.9423 25.1271 20.6378C25.0009 20.3332 24.9679 19.9981 25.0322 19.6748C25.0965 19.3515 25.2553 19.0545 25.4883 18.8214C25.7214 18.5884 26.0184 18.4296 26.3417 18.3653C26.665 18.301 27.0001 18.334 27.3047 18.4602C27.6092 18.5863 27.8695 18.7999 28.0526 19.074C28.2358 19.3481 28.3335 19.6703 28.3335 20C28.3335 20.442 28.1579 20.8659 27.8454 21.1785C27.5328 21.491 27.1089 21.6666 26.6669 21.6666Z" fill="url(#paint0_linear_515_11645)"/>
<defs>
<linearGradient id="paint0_linear_515_11645" x1="3.29346" y1="1.24309" x2="41.9557" y2="7.24219" gradientUnits="userSpaceOnUse">
<stop stop-color="#4D61A3"/>
<stop offset="1" stop-color="#3E35F7"/>
</linearGradient>
</defs>
</svg>
